<?xml version="1.0" standalone="no"?><!DOCTYPE svg PUBLIC "-//W3C//DTD SVG 1.1//EN" "http://www.w3.org/Graphics/SVG/1.1/DTD/svg11.dtd"><svg class="icon" width="200px" height="200.00px" viewBox="0 0 1024 1024" version="1.1" xmlns="http://www.w3.org/2000/svg"><path d="M516.5568 512m-460.8 0a460.8 460.8 0 1 0 921.6 0 460.8 460.8 0 1 0-921.6 0Z" fill="#434341" /><path d="M516.5568 550.2464a44.4416 44.4416 0 1 0 44.4416 44.4416 44.4416 44.4416 0 0 0-44.4416-44.4416z" fill="#FBD180" /><path d="M677.6832 220.8768H355.4816a95.4368 95.4368 0 0 0-95.4368 95.4368v377.4976a95.4368 95.4368 0 0 0 95.4368 95.4368h322.2016A95.488 95.488 0 0 0 773.12 693.8112V316.3136a95.488 95.488 0 0 0-95.4368-95.4368z m-161.1264 474.5728a100.7616 100.7616 0 1 1 100.7616-100.7616 100.864 100.864 0 0 1-100.7616 100.7616z m166.0416-309.4528a285.5424 285.5424 0 0 1-331.8272 1.3312 28.16 28.16 0 1 1 32.5632-46.08 229.2736 229.2736 0 0 0 266.24-1.0752 28.16 28.16 0 0 1 32.9728 45.6704z" fill="#FBD180" /></svg>