<?xml version="1.0" standalone="no"?><!DOCTYPE svg PUBLIC "-//W3C//DTD SVG 1.1//EN" "http://www.w3.org/Graphics/SVG/1.1/DTD/svg11.dtd"><svg class="icon" width="200px" height="200.00px" viewBox="0 0 1024 1024" version="1.1" xmlns="http://www.w3.org/2000/svg"><path  d="M547.248294 335.762113l-70.291926 0 0 140.526547-140.473335 0 0 70.238714 140.473335 0 0 140.526547 70.291926 0 0-140.526547 140.473335 0 0-70.238714-140.473335 0L547.248294 335.762113zM512.100796 160.14435c-193.216583 0-351.288738 158.072155-351.288738 351.289762 0 193.167464 158.072155 351.23962 351.288738 351.23962 193.220676 0 351.292831-158.072155 351.292831-351.23962C863.393627 318.216505 705.320449 160.14435 512.100796 160.14435M512.100796 792.433994c-154.519236 0-281.000905-126.449947-281.000905-281.000905 0-154.600077 126.481669-281.054117 281.000905-281.054117 154.527422 0 281.003975 126.455063 281.003975 281.054117C793.104771 665.984047 666.628218 792.433994 512.100796 792.433994" /></svg>