<?xml version="1.0" standalone="no"?><!DOCTYPE svg PUBLIC "-//W3C//DTD SVG 1.1//EN" "http://www.w3.org/Graphics/SVG/1.1/DTD/svg11.dtd"><svg class="icon" width="200px" height="200.00px" viewBox="0 0 1024 1024" version="1.1" xmlns="http://www.w3.org/2000/svg"><path fill="#6FCEFF" d="M512 87.04c-89.088 0-161.28 72.192-161.28 161.28 0 3.2768 0.1024 6.5024 0.3072 9.728 0.8704 14.9504 3.7888 29.3888 8.448 42.9568C381.3376 364.1856 441.344 409.6 512 409.6s130.6624-45.4144 152.5248-108.5952a161.0752 161.0752 0 0 0 8.448-42.9568c0.2048-3.2256 0.3072-6.4512 0.3072-9.728 0-89.088-72.192-161.28-161.28-161.28z m120.32 161.28c0 11.3152-1.5872 22.272-4.5056 32.6144h-0.0512C613.5808 331.4688 567.04 368.64 512 368.64s-101.5808-37.1712-115.7632-87.7056h-0.0512c-2.9184-10.3424-4.5056-21.2992-4.5056-32.6144 0-3.4304 0.1536-6.8608 0.4608-10.24C397.312 176.4864 449.0752 128 512 128s114.688 48.4864 119.8592 110.08c0.3072 3.3792 0.4608 6.8096 0.4608 10.24z"  /><path fill="#6FCEFF" d="M391.68 248.32c0-3.4304 0.1536-6.8608 0.4608-10.24a314.112 314.112 0 0 0-41.1136 19.968C258.4064 311.4496 194.816 409.6 189.7984 522.9568c-0.256 4.864-0.3584 9.728-0.3584 14.6432 0 10.0864 0.4608 20.1216 1.3824 29.952a120.2176 120.2176 0 0 1 40.0896-13.312 281.82528 281.82528 0 0 1 0.5632-41.3696c7.7824-88.7808 56.8832-165.888 128-211.8656a273.408 273.408 0 0 1 36.7104-20.0704c-2.9184-10.3424-4.5056-21.2992-4.5056-32.6144z m442.5216 274.6368c-5.0176-113.3568-68.608-211.5072-161.2288-264.9088a314.112 314.112 0 0 0-41.1136-19.968c0.3072 3.3792 0.4608 6.8096 0.4608 10.24 0 11.3152-1.5872 22.272-4.5056 32.6144a273.408 273.408 0 0 1 36.7104 20.0704c71.1168 45.9776 120.2176 123.0848 128 211.8656a281.82528 281.82528 0 0 1 0.5632 41.3696c14.336 2.048 27.8528 6.7072 40.0896 13.312 0.9216-9.8304 1.3824-19.8656 1.3824-29.952 0-4.9152-0.1024-9.7792-0.3584-14.6432z m-179.3536 257.2288c-41.8816 24.7808-90.7776 39.0144-142.848 39.0144s-100.9664-14.2336-142.848-39.0144a275.072 275.072 0 0 1-34.048-23.7056c-9.728 10.24-21.3504 18.7392-34.2016 25.0368 11.264 9.728 23.1936 18.688 35.6864 26.7776C387.072 841.1136 447.2832 860.16 512 860.16s124.928-19.0464 175.4112-51.8656c12.4928-8.0896 24.4224-17.0496 35.6864-26.7776a120.09472 120.09472 0 0 1-34.2016-25.0368 275.072 275.072 0 0 1-34.048 23.7056z"  /><path fill="#6FCEFF" d="M834.2016 522.9568c-13.1072-5.12-27.0848-8.6016-41.6768-10.0864-5.5296-0.5632-11.1616-0.8704-16.8448-0.8704-89.088 0-161.28 72.192-161.28 161.28 0 41.0112 15.2576 78.4384 40.448 106.9056a164.0448 164.0448 0 0 0 32.5632 28.1088c25.344 16.64 55.7056 26.2656 88.2688 26.2656 89.088 0 161.28-72.192 161.28-161.28 0-68.4544-42.5984-126.9248-102.7584-150.3232zM775.68 793.6c-18.8416 0-36.7104-4.352-52.5824-12.0832a120.09472 120.09472 0 0 1-34.2016-25.0368A119.63904 119.63904 0 0 1 655.36 673.28c0-66.3552 53.9648-120.32 120.32-120.32 5.888 0 11.7248 0.4096 17.408 1.28 14.336 2.048 27.8528 6.7072 40.0896 13.312 37.376 20.48 62.8224 60.16 62.8224 105.728 0 66.3552-53.9648 120.32-120.32 120.32zM248.32 512c-5.6832 0-11.3152 0.3072-16.8448 0.8704-14.592 1.4848-28.5696 4.9664-41.6768 10.0864C129.6384 546.3552 87.04 604.8256 87.04 673.28c0 89.088 72.192 161.28 161.28 161.28 32.5632 0 62.9248-9.6256 88.2688-26.2656a164.0448 164.0448 0 0 0 32.5632-28.1088c25.1904-28.4672 40.448-65.8944 40.448-106.9056 0-89.088-72.192-161.28-161.28-161.28z m52.5824 269.5168c-15.872 7.7312-33.7408 12.0832-52.5824 12.0832-66.3552 0-120.32-53.9648-120.32-120.32 0-45.568 25.4464-85.248 62.8224-105.728a120.2176 120.2176 0 0 1 40.0896-13.312c5.6832-0.8704 11.52-1.28 17.408-1.28 66.3552 0 120.32 53.9648 120.32 120.32 0 32.256-12.7488 61.5936-33.536 83.2-9.728 10.24-21.3504 18.7392-34.2016 25.0368z"  /></svg>