<svg xmlns="http://www.w3.org/2000/svg" width="20" height="20" viewBox="0 0 20 20"><defs><style>.a{fill:none;}</style></defs><g transform="translate(-747 -602)"><rect class="a" width="20" height="20" transform="translate(747 602)"/><path class="b" d="M139.557,66.482a13.024,13.024,0,0,1-5.824-2.024,1.4,1.4,0,0,0-1.523,0,13.016,13.016,0,0,1-5.824,2.023,1.407,1.407,0,0,0-1.269,1.4v6.5c0,4.333,5.891,7.845,7.854,7.845s7.854-3.51,7.854-7.845V67.884A1.408,1.408,0,0,0,139.557,66.482Zm-.139,7.9a4.409,4.409,0,0,1-.74,2.312,9.167,9.167,0,0,1-1.94,2.152,11.7,11.7,0,0,1-2.319,1.5,2.432,2.432,0,0,1-2.895,0,11.7,11.7,0,0,1-2.318-1.5,9.119,9.119,0,0,1-1.94-2.152,4.4,4.4,0,0,1-.74-2.312v-6.5a14.494,14.494,0,0,0,6.446-2.239,14.5,14.5,0,0,0,6.446,2.24Zm-9.431-1.154a.705.705,0,1,0-1,1l1.962,1.962.026.028a.71.71,0,0,0,1,0c.011-.011.022-.023.032-.035l4.945-4.945a.705.705,0,0,0-1-1l-4.48,4.479Z" transform="translate(623.881 538.766)"/></g></svg>