<?xml version="1.0" standalone="no"?><!DOCTYPE svg PUBLIC "-//W3C//DTD SVG 1.1//EN" "http://www.w3.org/Graphics/SVG/1.1/DTD/svg11.dtd"><svg class="icon" width="200px" height="179.02px" viewBox="0 0 1144 1024" version="1.1" xmlns="http://www.w3.org/2000/svg"><path d="M893.44 452.608v-376.32c0-44.544-25.6-76.288-64-76.288h-765.44c-38.4 0-64 31.744-64 76.288v861.184c0 51.2 25.6 82.944 64 82.944h771.584c-127.488-25.6-223.232-140.288-223.232-280.576-6.144-159.744 121.856-287.232 281.088-287.232z m-491.008 108.544h-242.176c-25.6 0-44.544-25.6-44.544-51.2s18.944-51.2 51.2-51.2h242.176c25.6 0 51.2 18.944 51.2 51.2s-26.112 51.2-57.856 51.2z m203.776-254.976h-446.464c-25.6 0-44.544-25.6-44.544-51.2s18.944-51.2 51.2-51.2h446.464c25.6 0 44.544 18.944 44.544 51.2 0 31.744-25.6 51.2-51.2 51.2z" fill="#9FA3A9" /><path d="M893.44 516.608s-6.144 0 0 0c-82.944 0-146.944 38.4-184.832 95.744 0 6.144-6.144 6.144-6.144 12.8-6.144 6.144-12.8 18.944-12.8 25.6v6.144c-12.8 25.6-18.944 51.2-18.944 82.944 0 12.8 0 31.744 6.144 44.544 0 6.144 6.144 12.8 6.144 18.944 0 6.144 6.144 12.8 6.144 18.944 6.144 6.144 6.144 18.944 12.8 25.6 0 6.144 6.144 6.144 6.144 12.8 6.144 12.8 12.8 18.944 25.6 31.744 38.4 38.4 95.744 64 153.088 64h6.144c121.344 0 223.232-101.888 223.232-223.232s-101.376-216.576-222.72-216.576z m140.288 280.576h-140.288c-18.944 0-31.744-12.8-31.744-31.744v-153.088c0-18.944 12.8-31.744 31.744-31.744s31.744 12.8 31.744 31.744v121.344h108.544c18.944 0 31.744 12.8 31.744 31.744s-18.944 31.744-31.744 31.744z"  /></svg>