<svg t="1715840721691" class="icon" viewBox="0 0 1025 1024" version="1.1" xmlns="http://www.w3.org/2000/svg" p-id="3987" width="256" height="256"><path d="M939.83 230.881C784.536-5.402 467.168-71.096 230.886 84.193S-71.091 556.855 84.198 793.137c155.289 236.277 472.672 301.977 708.944 146.688S1095.119 467.163 939.83 230.881zM770.036 904.83c-216.98 142.597-508.363 82.201-650.955-134.691C-23.496 553.158 36.9 261.78 253.777 119.188 470.762-23.398 762.141 36.997 904.727 253.88S987.016 762.238 770.036 904.83zM879.429 270.479C746.038 67.594 473.466 11.203 270.581 144.491S11.202 550.46 144.588 753.339c133.289 202.89 405.969 259.379 608.848 125.988C956.326 745.936 1012.815 473.363 879.429 270.479zM741.937 861.94c-193.28 126.991-452.96 73.287-579.951-120.002-126.991-193.28-73.293-452.96 119.992-579.951s452.965-73.293 579.956 119.992C989.023 475.263 935.227 734.943 741.937 861.94zM390.471 327.172c60.897-39.997 134.292-45.998 197.785-22.697l21.888-14.402c-72.888-32.2-159.984-27.899-231.577 19.092-71.593 46.996-109.988 125.291-109.389 204.984l21.898-14.5C294.875 432.065 329.574 367.17 390.471 327.172zM645.349 714.842c71.588-46.996 109.988-125.296 109.389-204.984l-21.893 14.403c-3.794 67.599-38.497 132.49-99.394 172.487-60.892 40.002-134.287 45.988-197.78 22.702l-21.898 14.5C486.66 766.139 573.761 761.839 645.349 714.842zM325.472 290.175l14.899-39.398 41.999 2.002-32.799-26.296 14.899-39.398-35.195 23.101-32.901-26.301 11.1 40.596-35.195 23.096 42.091 2.002L325.472 290.175zM284.978 331.775l-40.898-9.902-3.098-41.994-22.103 35.794-40.893-9.994 27.197 32.195-22.098 35.799 38.897-16 27.3 32.097-3.2-41.999L284.978 331.775zM436.668 232.181l30.095-29.399 37.299 19.502-18.601-37.698 30.095-29.399-41.692 6.098-18.601-37.796-7.101 41.497-41.692 6.103 37.294 19.594L436.668 232.181zM561.959 226.58l39.787-13.896 25.503 33.398-1.004-41.999 39.803-13.998-40.402-12.099-0.901-41.994-23.992 34.596-40.294-12.099 25.487 33.495L561.959 226.58zM188.887 452.863l-20.598-36.695-4.9 41.794-41.298 8.202 38.195 17.597-4.9 41.794 28.6-30.894 38.195 17.597-20.598-36.695 28.6-31.001L188.887 452.863zM698.448 733.75l-14.899 39.388-41.999-2.002 32.799 26.301-14.899 39.398 35.2-23.096 32.901 26.286-11.1-40.586 35.19-23.101-42.096-2.002L698.448 733.75zM840.84 650.249l-38.902 16-27.3-32.102 3.2 42.004-38.897 16 40.899 9.897 3.098 41.989 22.098-35.794 40.904 9.999-27.203-32.195L840.84 650.249zM587.252 791.739l-30.095 29.399-37.299-19.502 18.601 37.704-30.095 29.394 41.697-6.108 18.596 37.801 7.096-41.487 41.697-6.113-37.289-19.589L587.252 791.739zM461.966 797.336l-39.798 13.901-25.498-33.398 0.998 41.999-39.798 13.998 40.397 12.104 0.901 41.989 23.997-34.596 40.299 12.093-25.498-33.49L461.966 797.336zM863.639 540.159l4.9-41.8-28.605 30.899-38.195-17.597 20.598 36.7-28.6 30.986 41.303-8.289 20.593 36.695 4.9-41.794 41.298-8.197L863.639 540.159z" fill="#517AEE" p-id="3988"></path><path d="M309.59616 577.79712c0.57344 0.09216 1.44384 0.21504 2.60608 0.37376 11.17184-1.65888 16.95232-1.86368 17.37216-0.63488 0.4096 1.24928 0.08704 2.5344-0.98816 3.85024-1.65888 1.24416-2.60608 2.72896-2.85696 4.46464-13.4656 38.5536-19.50208 52.91008-18.09408 43.0592 2.64192-14.3872 2.59584-28.57472-0.14336-42.55744C305.664 580.48512 306.37568 577.63328 309.59616 577.79712zM353.41312 634.10688l38.35904 51.0976c2.8928 2.47808 2.68288 5.99552-0.6144 10.5472-3.64544 6.86592-6.53824 8.51456-8.68352 4.9664l-41.33376-55.07072c-0.08704 0.58368-0.20992 1.45408-0.37376 2.6112-0.98816 2.816-2.72384 6.70208-5.20704 11.65824-1.8176 4.46976-3.22048 7.07584-4.21376 7.81824-0.91136 0.1792-0.95744-1.60768-0.12288-5.33504 2.64192-16.45056 2.09408-34.4064-1.63328-53.84704-2.31936-6.52288-1.41312-9.79456 2.71872-9.79968 8.11008-0.91136 14.18752-1.08032 18.24256-0.512 0.08192 1.49504-0.45056 3.19488-1.60768 5.08928-1.47968 2.15552-2.1504 3.69152-1.98144 4.59264-0.7424 11.41248-1.15712 17.41824-1.23392 17.98656 2.05824 0.00512 3.6352 0.37888 4.71552 1.12128 0.74752 0.98816 1.28512 2.4064 1.6128 4.21376C352.37888 633.07776 352.83456 634.02496 353.41312 634.10688zM362.56256 551.22432l9.30816 12.40576 11.41248-8.57088-0.37376-0.50176c-0.58368-8.3456-0.21504-13.02528 1.11104-14.01856 1.90464-0.90624 7.23456-1.02912 16.00512-0.37888 2.31424 0.33792 3.72736 0.82944 4.21888 1.48992 0.16384 0.91648-0.41984 1.8688-1.73568 2.85696l-28.7744 21.6064 16.01024 21.32992 17.36704-13.03552c0.08192-0.56832 0.08192-1.60768 0-3.10272-0.67072-7.77216-0.33792-12.16 0.98304-13.15328 2.816-1.05984 8.97536-0.77824 18.48832 0.86528 1.39776 0.49664 2.19136 1.2032 2.3552 2.10944 0.25088 0.32768-0.29184 0.99328-1.60768 1.98656l-9.42592 7.07584c-8.2688 4.15232-8.77056 9.68704-1.47968 16.62976l6.32832 8.43264 1.4848-1.12128c-0.24576-0.32768-0.29184-1.07008-0.12288-2.23744-0.41984-7.43936 0.03584-11.65824 1.36192-12.65664 1.90464-0.91136 7.07584-0.91136 15.50848-0.00512 1.98656 0.57856 3.06176 1.32608 3.2256 2.23232 0.50176 0.67072-0.04608 1.3312-1.60768 1.98656l-18.3552 13.77792 26.80832 35.72224c5.53984 10.83392 1.8688 20.04992-11.02336 27.66848-1.24416 0.4096-2.78016-0.23552-4.59264-1.98656-3.89632-3.79904-7.69536-5.07904-11.41248-3.83488l-5.70368 2.72896c-0.24576-0.32256 1.43872-1.85856 5.08416-4.59264 8.84736-6.11328 11.2384-11.54048 7.18848-16.256l-21.22752-28.27776-36.71552 27.56096c-1.98144 1.48992-3.4304 2.31936-4.34176 2.4832-1.4848 0.08704-1.53088-0.65536-0.12288-2.23232l39.69024-29.79328-13.77792-18.36032-38.69696 29.05088c-1.3312 0.99328-2.72384 1.536-4.21888 1.6128-1.16224-0.15872-1.19808-0.90624-0.12288-2.23744l23.81312-17.87392-16.01536-21.32992-14.88384 11.17696c-1.98144 1.48992-3.72224 2.27328-5.21216 2.3552-1.16224-0.15872-1.03424-1.024 0.37376-2.60608l18.3552-13.7728-11.91936-15.88224c-4.14208-4.12672-4.14208-7.22944-0.00512-9.30816 10.00448-5.94944 14.92992-8.35072 14.76608-7.1936 0.50176 0.6656 0.61952 1.85344 0.37376 3.59424C360.94976 548.03968 361.56928 549.90336 362.56256 551.22432zM382.08 638.18752c-2.4064 0.256-3.2768 0.13312-2.60608-0.36352 0.0768-0.57344 2.18624-1.89952 6.3232-3.97312 9.42592-3.97824 17.03424-4.51072 22.82496-1.62304 8.51968 10.67008 7.08096 17.69984-4.33664 21.08928-1.8176 0.3328-4.08576-1.31584-6.82496-4.96128C392.99584 642.40128 387.8656 639.01696 382.08 638.18752z" fill="#517AEE" p-id="3989"></path><path d="M460.06272 516.8128l10.4192-7.82336c0.90624-0.15872 1.31584-2.0224 1.23392-5.5808-0.41472-3.3024-0.12288-5.33504 0.86528-6.08256 7.5264-3.05664 15.17568-3.89632 22.95296-2.49344 0.99328 1.32608 1.02912 3.10272 0.12288 5.34016-0.82432 1.65888-0.98816 2.81088-0.49664 3.46624 8.19712 17.12128 13.5424 34.57024 16.03072 52.352 21.75488 4.87936 48.82944-7.95648 81.24416-38.49728 0.99328-0.74752 1.32608 0.0512 0.98816 2.3552-1.40288 5.71392-1.19296 10.46528 0.62976 14.26944 2.56 4.79744 0.9984 8.56064-4.7104 11.2896-31.42656 23.58784-57.72288 31.95392-78.89408 25.09312-4.3776 16.22528-10.04032 31.05792-16.97792 44.54912-2.15552 2.65216-3.34848 3.80416-3.59424 3.47648 0.0768-0.57344 0.8192-2.68288 2.23232-6.32832 5.78048-15.70304 7.97184-31.0528 6.5536-46.0288-10.6752-5.94944-21.92384-14.04928-33.75616-24.30464 0.67072 30.52544-0.03072 41.65632-2.09408 33.3824-3.90144-24.4736-14.24896-50.31936-31.04768-77.52704-3.5584-4.0448-2.85696-6.90688 2.10432-8.56576 11.24352-4.29568 17.86368-6.16448 19.85024-5.59104 0.7424 0.98816 0.8192 2.4832 0.24576 4.46464-0.73728 3.1488-0.70144 5.95968 0.128 8.43776C455.41888 501.6832 457.41056 508.47232 460.06272 516.8128zM475.32032 509.2352l-14.3872 10.8032c0.57344 2.15552 0.9472 4.71552 1.12128 7.68512 0.4096 3.31264 0.95744 5.76512 1.6128 7.32672 10.75712 9.50784 21.55008 15.62624 32.38912 18.34496C492.00128 538.34752 485.08416 523.63264 475.32032 509.2352zM498.24768 454.016l16.75264 22.3232c20.84352-7.36768 34.03264-9.76896 39.5776-7.21408 6.03648 3.23072 9.22624 7.81824 9.55904 13.76768-0.32768 6.46144-3.4304 9.55904-9.30304 9.30816-1.4848 0.09216-3.96288-1.15712-7.43936-3.71712-8.43776-7.11168-18.61632-10.33216-30.52544-9.66656l39.84384 53.08416c2.65216 2.15552 1.1264 5.632-4.58752 10.42432-3.64032 4.80256-6.62016 4.97152-8.9344 0.50176L479.5136 457.99424c-3.14368-2.80576-2.816-5.12 0.98816-6.94272 8.35072-4.71552 13.39904-6.95808 15.13472-6.7072 0.50176 0.6656 0.61952 1.85856 0.37376 3.59936C496.26624 450.33984 497.00864 452.36736 498.24768 454.016z" fill="#517AEE" p-id="3990"></path><path d="M653.66528 345.89184l31.27808 41.67168c3.06176 3.39968 1.65376 8.064-4.20864 14.02368-3.30752 4.55168-6.12352 4.59776-8.43776 0.11776l-2.97472-3.96288-10.91584 8.19712 16.01024 21.33504 9.43104-7.07584c0.32256-0.24576 0.32256-2.30912-0.00512-6.20544-0.25088-4.46464 0-7.23968 0.7424-8.32 1.98656-1.48992 7.94624-1.8176 17.86368-0.9984 1.65376 0.82944 2.73408 1.57184 3.23072 2.23232 0.16896 0.9216-0.5376 1.70496-2.10944 2.36032l-27.28448 20.48512 17.13152 22.81984 13.39392-10.05568c0.32256-0.24576 0.29184-2.0224-0.12288-5.33504-0.42496-5.37088-0.25088-8.6016 0.49152-9.6768 1.98656-1.48992 8.22784-1.77664 18.73408-0.88064 2.64192 0.08192 3.92192 0.41472 3.84512 0.98816 0.16384 0.91136-1.23904 2.47808-4.21376 4.71552l-76.9024 57.72288c-1.23904 0.41472-2.44224 0.54272-3.59424 0.37888-0.82944-0.41472-0.74752-0.98816 0.24576-1.73568l35.2256-26.4448-17.13152-22.81984-23.81312 17.87904c-1.32608 0.99328-2.39616 1.29024-3.2256 0.86528-0.49664-0.66048-0.36864-1.52576 0.37376-2.60096l24.80128-18.62144-15.6416-20.8384-10.91072 8.192 3.34848 4.46464c2.31424 2.4064 1.1264 5.632-3.59424 9.68192-3.30752 4.5568-6.12352 4.59776-8.43264 0.12288l-10.8032-14.39232-18.3552 13.77792 22.3488 29.7728c13.47072-15.80032 18.92864-20.92544 16.36352-15.39584-8.6016 18.8672-14.6176 35.28704-18.08896 49.25952-0.82432 3.73248-1.536 5.55008-2.10432 5.46304-2.23744 1.16224-7.28576-1.77152-15.14496-8.80128-3.2256-2.23232-2.72896-5.7088 1.4848-10.42432 1.7408-1.81248 3.72224-4.34176 5.95456-7.57248l-24.21248-32.25088-11.41248 8.56576c-1.65888 1.24416-2.8928 1.66912-3.72224 1.24416-0.82944-0.4096-0.54272-1.39776 0.86528-2.97472l12.40576-9.31328-23.0912-30.76096-9.42592 7.07584c-1.3312 0.99328-2.44224 1.57696-3.34848 1.7408-0.49664-0.66048-0.20992-1.64864 0.86528-2.97984l23.3216-17.50016-0.256-4.46464c-0.7424-5.12512-0.61952-8.06912 0.36864-8.81152 1.32096-0.98816 4.9664-1.65376 10.92096-1.99168 2.05824 0 4.16768-0.28672 6.3232-0.8704l-2.97472-3.96288c-1.82784-1.7408-2.41152-2.85184-1.74592-3.34848 0.74752-1.07008 2.64704-1.98656 5.7088-2.73408 0.25088 0.3328 0.53248 0.37376 0.86528 0.12288 5.7088-0.66048 9.26208-1.77664 10.6752-3.3536l30.2592-22.71744-0.12288-2.23232c-0.58368-4.21888-0.3328-6.99392 0.7424-8.32 10.67008-4.38272 18.52416-4.59264 23.57248-0.62976-0.08192 0.58368-0.24064 1.7408-0.49152 3.47136C653.5424 344.68864 653.41952 345.56416 653.66528 345.89184zM590.1568 390.45632l-14.00832 11.29984c-3.55328 2.1504-3.75808 4.64384-0.61952 7.44448l19.36384 25.79456c0.32256-0.24064 0.4096-1.85344 0.25088-4.83328-0.3328-3.88096-0.00512-6.20544 0.98816-6.94784 1.31584-0.98816 5.49888-1.28 12.52864-0.8704 2.64704 0.08704 4.29568-0.11776 4.96128-0.62464L590.1568 390.45632zM602.93632 381.63968l13.03552 17.36192 10.91584-8.192-16.38912-21.82656-6.4512 4.84352C600.16128 376.23296 599.79264 378.83392 602.93632 381.63968zM617.45664 400.98304l15.64672 20.8384 10.91584-8.192-15.64672-20.8384L617.45664 400.98304zM626.37568 363.26912l13.03552 17.36192 10.91584-8.19712-16.01536-21.32992-7.44448 5.58592C623.65184 358.6048 623.47264 360.79104 626.37568 363.26912zM641.26976 383.10912l15.6416 20.8384 10.91584-8.19712-15.6416-20.8384L641.26976 383.10912z" fill="#517AEE" p-id="3991"></path></svg>