<svg t="1715840817190" class="icon" viewBox="0 0 1024 1024" version="1.1" xmlns="http://www.w3.org/2000/svg" p-id="7976" width="256" height="256"><path d="M1002.709333 371.841219L851.709562 133.751467c-13.185219-20.7616-40.738133-26.904381-61.561905-13.833753L36.551924 596.655543c-20.766476 13.185219-26.904381 40.738133-13.861791 61.442438L173.689905 896.21821c13.186438 20.709181 40.738133 26.847086 61.505828 13.777676l753.623772-476.704915c20.823771-13.192533 27.079924-40.711314 13.889828-61.449752z m-30.076343 35.861943L219.009219 884.470248c-6.665752 4.199619-15.390476 2.233295-19.590095-4.404419L48.419352 641.946819c-4.200838-6.666971-2.233295-15.362438 4.432458-19.619352l753.653028-476.737829c6.671848-4.171581 15.42339-2.200381 19.562057 4.437333l151.061943 238.115353c4.052114 6.523124 2.056533 15.275886-4.495848 19.560838zM322.985448 256.618057l12.514742 30.014172 16.214553-28.166096 32.394971-2.614857-21.82339-24.143238 7.432533-31.575771-29.609447 13.309562-27.813791-16.833829 3.523048 32.338895-24.671086 21.033448 31.837867 6.637714z m191.885409-89.352533l-15.567238-28.575695-13.185219 29.752076-32.014629 6.109866 24.171277 21.675886-4.171581 32.219429 28.195352-16.301105 29.404648 13.953219-6.785219-31.837867 22.290285-23.61539-32.337676-3.380419z m292.548267 478.676114l-25.762134-19.799771-0.11459 32.457143-26.904381 18.243047 30.985752 10.220495 9.133105 31.161296 19.209753-26.229029 32.514438 0.910629-19.090286-26.372877 11.014095-30.461561-30.985752 9.870628zM702.266514 775.350857l-12.275809-30.104381-16.481524 28.052724-32.366933 2.349105 21.61859 24.260266-7.695848 31.542858 29.781334-13.009677 27.700419 17.209296-3.262172-32.366934 24.671086-21.000533-31.689143-6.932724z m-192.624152 88.00061l15.424609 28.695162 13.452191-29.666743 32.014628-5.723429-24.028647-21.914819 4.409295-32.190171-28.314819 16.009752-29.257143-14.1568 6.519467 31.775695-22.614553 23.530057 32.394972 3.641296zM221.09501 382.417676l25.614628 20.119162 0.380343-32.485181 27.023848-18.152838-30.813867-10.428952-8.900267-31.3088-19.44259 26.052266-32.514438-1.176381 18.82819 26.494781-11.223771 30.548115 31.047924-9.662172zM106.691048 522.665448c-3.4048-137.519543 63.47581-273.481143 188.071009-352.285258 124.623238-78.805333 276.124038-81.038629 399.190553-19.295085l29.724038-18.800153c-36.419048-20.353219-75.600457-35.247543-116.866438-44.500114-55.133867-12.395276-111.290514-13.948343-166.805943-4.814019-57.480533 9.513448-111.818362 30.251886-161.456762 61.70941-49.609143 31.456305-91.671162 71.637333-124.862172 119.514209-32.132876 46.171429-54.718171 97.604267-67.142704 152.646705-9.252571 41.205029-12.542781 82.972038-9.662172 124.596419l29.810591-18.772114z m809.285485-21.028572c3.552305 137.519543-63.328305 273.481143-187.923504 352.257219-124.5952 78.890667-276.122819 81.066667-399.162515 19.324343l-29.781333 18.828191c36.419048 20.294705 75.628495 35.220724 116.900571 44.470857 55.127771 12.395276 111.285638 14.010514 166.799848 4.814019 57.480533-9.514667 111.819581-30.223848 161.428724-61.681372s91.671162-71.638552 124.890209-119.486171c32.014629-46.228724 54.599924-97.628648 66.9952-152.643048 9.28061-41.237943 12.514743-83.03299 9.632915-124.656152l-29.780115 18.772114zM384.637562 312.189562c34.895238-22.02819 73.281829-33.781029 111.819581-36.128914l45.994667-29.080381c-60.771962-7.166781-121.628038 6.523124-174.143391 39.684876-52.371505 33.128838-90.761752 82.328381-110.2336 140.247771l45.966629-29.075504c18.681905-33.95779 45.73501-63.562362 80.596114-85.647848zM638.147048 712.084724c-34.895238 22.090362-73.252571 33.838324-111.790324 36.186209l-45.967848 29.080381c60.743924 7.166781 121.571962-6.552381 174.115353-39.714133 52.371505-33.099581 90.761752-82.328381 110.204342-140.247771l-45.93859 29.137676c-18.679467 33.80541-45.76061 63.529448-80.622933 85.557638z m-338.951315-63.914667" p-id="7977" fill="#517AEE"></path><path d="M155.215238 608.926476l26.474057-1.788343c-3.997257 3.347505-7.336229 15.221029-10.025447 35.637638-2.3296 20.976152-8.213943 41.892571-17.643277 62.728534l-3.456-1.288534c4.717714-18.600229 7.494705-36.154514 8.317562-52.656761 0.816762-16.479086-0.410819-30.699276-3.666895-42.632534z m51.504762 80.304762L275.748571 796.854857l-10.793447 13.933714c-7.883581-13.639924-15.345371-25.979124-22.430476-37.026133l-39.823848-62.090971c-3.139048 18.371048-8.5248 36.6336-16.169448 54.771809l-3.456-1.286095c6.242743-25.8048 9.375695-49.631086 9.406172-71.466667 0.0256-21.814857-1.015467-37.121219-3.130514-45.897143l25.541485-1.193447c-3.641295 3.90461-6.370743 18.107733-8.172495 42.631314z m46.2848-93.950781c-9.201371-14.345752-17.128838-26.002286-23.764114-35.001295l27.677257-6.065981-4.671391 11.17379 13.805715 21.523505 28.890209-18.528305 4.410514-15.683047 24.869791 3.911924-54.985143 35.267047 21.239467 33.116648 46.598095-29.88861 4.811581-17.106895 26.333867 4.141105-120.222477 77.108419c-8.081067 5.18339-15.006476 10.793448-20.77379 16.83139l-13.165714-2.071162 63.37219-40.646704-21.239467-33.115429-27.958857 17.932191-11.053104 9.426895-11.702858-1.840762 47.528229-30.484724z m84.946895 140.645181c17.290971-7.199695 28.192914-12.440381 32.677791-15.700114 4.477562-3.274362 5.305295-7.111924 2.475885-11.521219l-37.168761-57.952305-74.556953 47.819581-7.325257 7.037562-11.705295-1.8432 90.399695-57.981562c-3.8912-6.0672-9.520762-14.140952-16.860648-24.238324l27.274972-4.642133-5.201676 10.347276 6.902247 10.760533 13.047467-8.366323 4.8128-17.106896 26.332648 4.139886-41.006324 26.299733 39.292343 61.264457c6.371962 9.9328 4.444648 21.283352-5.764877 34.078477-6.112305-5.428419-19.774171-4.845714-40.973409 1.7408l-2.652648-4.136229z m-59.677257-37.671009c19.594971-0.886248 31.5392-0.366933 35.847314 1.543314 4.293486 1.921219 7.33501 4.259352 9.102629 7.016838 1.06179 1.654248 1.762743 4.126476 2.118705 7.402057 0.340114 3.287771-0.607086 6.230552-2.872076 8.855162-2.26499 2.618514-6.627962 0.944762-13.096229-5.040762-6.459733-5.968457-17.412876-11.413943-32.835048-16.329143l1.734705-3.447466z" p-id="7978" fill="#517AEE"></path><path d="M264.2176 821.692952l-4.539733-7.854323c-7.914057-13.692343-15.412419-26.069333-22.284191-36.785981l-31.720838-49.456762c-3.270705 13.822781-7.798248 27.629714-13.524114 41.214781l-2.267429 5.382095-14.001981-5.207772 1.272686-5.258971c6.098895-25.209905 9.206248-48.775314 9.235505-70.0416 0.0256-21.244343-0.971581-36.203276-2.961067-44.462324l-1.728609-7.171657 47.854933-2.235733-10.200991 10.94339c-0.454705 0.521752-2.21379 3.240229-4.047238 15.213715l53.706362-34.447848-14.657828-22.853486-22.479238 14.417676-12.870705 10.977524-30.317714-4.767695 55.886019-35.846095c-7.639771-11.761371-14.433524-21.685638-20.234972-29.552153l-5.574705-7.560533 48.301105-10.58621-7.957943 19.037867 8.788115 13.700876 21.809981-13.987352 5.249219-18.667276 46.064152 7.246019-63.355124 40.635733 14.657829 22.854705 39.517866-25.346438 5.650286-20.088686 47.52701 7.4752-53.032229 34.012648 22.044038-3.75101-9.055086 18.011429 1.735924 2.707505 5.968457-3.82781 5.651505-20.088686 47.52701 7.472762-49.377524 31.669638 36.002133 56.133486c5.432076 8.467505 8.778362 22.485333-6.131809 41.169676l-4.008229 5.022476-4.804267-4.266666c-1.57501-1.399467-4.637257-2.139429-8.852723-2.139429-6.442667 0-15.279543 1.731048-26.264381 5.143162l-4.432457 1.377524-9.08922-14.166553 6.714515-2.796495c20.8896-8.697905 28.625676-12.959695 31.438019-15.004038 2.0736-1.515276 1.877333-1.822476 0.928914-3.298743l-33.878552-52.822552-51.126857 32.791162c4.259352-0.149943 8.139581-0.225524 11.578514-0.225524 14.567619 0 19.432838 1.327543 22.044038 2.484419 5.406476 2.41859 9.35741 5.545448 11.763809 9.300114 1.584762 2.46979 2.581943 5.753905 3.0464 10.033981 0.514438 4.972495-0.980114 9.628038-4.317866 13.494857-1.848076 2.135771-4.4288 3.309714-7.2704 3.309715-4.208152 0-8.705219-2.423467-14.578591-7.8592-5.766095-5.328457-16.043886-10.374095-30.545676-14.995505l-6.802286-2.167467 2.748953-5.466209-5.463772 3.504762-9.077028 8.721066-30.534705-4.806704L324.266667 643.983848c-3.337752-4.951771-7.573943-10.959238-12.821943-18.18941L251.288381 664.380952c-7.639771 4.900571-14.253105 10.25219-19.657143 15.909791l-2.204038 2.307657-15.826895-2.489295c-0.223086 2.328381-0.440076 4.839619-0.649753 7.547124l70.250058 109.530209-18.98301 24.506514z m-64.877714-126.550552l48.313295 75.32861c5.635657 8.786895 11.678476 18.6624 18.016305 29.44l2.624609-3.387734-67.803428-105.713371 0.148723-2.026057c0.2816-3.838781 0.581486-7.355733 0.893562-10.575238l-3.158552-0.496153c0.14019 4.872533 0.206019 10.196114 0.199924 15.984153a237.533867 237.533867 0 0 1-0.097524 6.48899l0.863086-5.0432z m169.339124 33.409219c4.304457 0 8.044495 0.60221 11.1872 1.796876 7.653181-11.585829 5.116343-18.49539 2.347885-22.812038l-51.258514-79.915886 1.349486-2.683123-5.76 0.980114c4.699429 6.601143 8.404114 12.014933 11.229866 16.414476l40.458972 63.083276c4.59459 7.160686 3.095162 14.538362-4.010667 19.732724-1.367771 0.994743-3.21219 2.128457-5.544228 3.403581z m-69.694172-24.572343c6.030629 2.992762 10.843429 6.170819 14.527391 9.5744 2.592914 2.399086 4.299581 3.560838 5.307733 4.120381 0.430324-0.872838 0.570514-1.777371 0.4608-2.831847-0.349867-3.2256-0.995962-4.44221-1.184914-4.73722-1.091048-1.700571-3.324343-3.34019-6.462172-4.745752-0.649752-0.285257-3.39139-1.162971-12.648838-1.379962z m-102.375619-50.423466c0.8704 6.111086 1.448229 13.834971 1.742019 23.287466l3.5584-2.283276c1.066667-9.862095 2.275962-16.644876 3.542552-21.416229l-8.842971 0.412039z m64.817981-56.43581l21.028571 32.787505 2.786743-1.787124-39.851885-62.133638 1.383619-3.310933-7.169219 1.571352c5.497905 7.809219 11.669943 17.047162 18.427123 27.577295l3.395048 5.295543z m105.699962 22.282971l-1.408 5.006629 6.546286-4.1984-5.138286-0.808229z m-20.8384-34.540495l-1.408 5.007848 6.547505-4.199619-5.139505-0.808229z m-42.533791-25.298895l-1.006933 3.581562 4.683581-3.004953-3.676648-0.576609zM157.227886 713.205029l-13.91421-5.185829 1.34461-5.301638c4.603124-18.149181 7.341105-35.463314 8.138362-51.462095 0.78019-15.750095-0.384-29.45219-3.459658-40.724724l-1.960228-7.185067 52.576305-3.551086-14.34941 12.014934c-0.427886 0.37181-4.291048 4.425143-7.887238 31.701333-2.39421 21.495467-8.497981 43.198171-18.140648 64.505905l-2.347885 5.188267z m5.546666-98.679467c1.816381 9.257448 2.62339 19.653486 2.411277 31.054019 0.151162-1.159314 0.291352-2.31741 0.420571-3.475505l0.014629-0.123124c1.765181-13.403429 3.665676-22.162286 5.5808-28.024685l-8.427277 0.569295z" fill="#517AEE" p-id="7979"></path><path d="M453.472305 493.577752c-3.793676-10.016914-8.022552-20.358095-12.662248-31.021104-4.64579-10.641067-9.312305-20.316648-13.994667-28.998705l24.350477-5.102933-2.807467 9.981561c9.809676 24.873448 15.864686 40.467505 18.161371 46.772419l93.194972-59.77478 5.613714-19.959467 28.325791 5.200457-124.881677 80.097524a295.728762 295.728762 0 0 1 12.191696 35.414552l80.147504-51.406019 0.683886-13.291276 23.806781 2.257676-4.670171 11.173791c0.497371 25.385448-1.799314 49.844419-6.882743 73.351314 30.060495 1.751771 63.32099-5.15779 99.793676-20.773791l1.593295 2.481981c-8.25661 7.634895-11.696762 15.280762-10.272914 22.948572-35.234133 9.344-66.314971 12.153905-93.259581 8.405333-12.550095 33.75299-35.165867 66.168686-67.838781 97.258057l-2.524648-1.885866c31.082057-36.294705 49.9712-69.040762 56.664991-98.272305-23.936-7.23261-46.138514-17.910248-66.601448-32.063391l-8.387047 5.380877c4.8384 22.603581 6.43901 45.928838 4.760381 69.970895-1.668876 24.056686-8.738133 48.254781-21.180953 72.593066l-3.457219-1.288533c4.971276-14.104381 8.566248-30.031238 10.772724-47.804952 2.191848-17.763962 2.174781-36.247162-0.058514-55.46301-2.23939-19.192686-8.340724-42.73981-18.3296-70.619428l-42.870248 27.496838-2.675809 12.233143-19.548648-3.819277 4.800609-8.92099c-2.631924-23.233829-6.016-40.1408-10.17539-50.728229l24.480914-2.847695-4.270324 9.749943c2.634362 17.788343 4.345905 30.711467 5.135848 38.768152l42.871467-27.4944z m23.527619-86.364647c22.261029-4.929829 37.522286-7.122895 45.767924-6.570667 8.248076 0.553448 13.614324 2.768457 16.087771 6.624305 1.06179 1.655467 1.867581 4.644571 2.449067 8.945371 0.565638 4.310552 0.229181 6.863238-1.008153 7.658057-1.863924 1.194667-5.946514 0.308419-12.234362-2.669714-10.900724-4.690895-28.01859-8.116419-51.332876-10.308267l0.270629-3.679085z m19.265828 116.170362c21.263848 11.300571 42.805638 18.898895 64.619277 22.819352 4.011886-19.69981 5.150476-41.860876 3.414552-66.453943l-68.033829 43.634591z" p-id="7980" fill="#517AEE"></path><path d="M469.756343 681.923048l-14.153143-5.272381 1.990705-5.647848c4.811581-13.649676 8.334629-29.304686 10.472838-46.529829 2.122362-17.204419 2.101638-35.377981-0.06461-54.008685-1.98461-17.01181-7.185067-37.85021-15.47459-62.0288l-34.255238 21.970895-3.409676 15.5904-33.517715-6.547505 7.815315-14.521295c-2.530743-21.655162-5.750248-37.562514-9.5744-47.29539l-2.895239-7.369143 42.892191-4.989562-7.827505 17.873676c1.631086 11.070171 2.902552 20.271543 3.80221 27.509029l30.449371-19.530362a708.035048 708.035048 0 0 0-10.782476-26.1376c-4.57021-10.466743-9.20381-20.0704-13.770362-28.536686l-3.876571-7.185067 42.180266-8.839314-4.973714 17.682286c6.774248 17.186133 11.7248 29.870324 14.793143 37.898971l71.616609-45.933714c-3.722971 1.064229-8.433371 0.080457-15.633066-3.318248-10.24-4.382476-26.859276-7.678781-49.398248-9.797486l-5.947733-0.558323 1.044724-14.159238 4.427581-0.981334c23.122895-5.121219 38.501181-7.298438 47.492876-6.701105 10.241219 0.686324 17.243429 3.85341 20.810362 9.413486 1.570133 2.449067 2.638019 6.078171 3.359695 11.422476 0.347429 2.652648 1.089829 8.305371-1.885867 11.940572l9.016076-5.783162 6.491429-23.076572 48.978895 8.991696-133.61859 85.700266a304.75581 304.75581 0 0 1 8.222476 23.478858l70.637714-45.307124 0.848457-16.520534 38.382934 3.640077-7.369143 17.629866c0.362057 22.740114-1.516495 45.015771-5.590553 66.340572 0.60099 0.007314 1.2032 0.010971 1.804191 0.010971 26.667886 0 56.337067-6.913219 88.182248-20.547048l4.743314-2.029714 7.137524 11.122591-3.75101 3.46819c-6.685257 6.18179-9.439086 11.860114-8.417524 17.360457l1.032534 5.556419-5.462553 1.448229c-25.559771 6.779124-49.34461 10.215619-70.691352 10.215619-6.89981 0.001219-13.65821-0.3584-20.155733-1.067886-13.130362 32.874057-35.858286 64.826514-67.61082 95.039391l-3.727847 3.546209-11.867429-8.863695 4.238629-4.949333c28.356267-33.111771 46.487162-63.431924 53.968457-90.226591a243.797333 243.797333 0 0 1-59.371276-28.841447l-1.479924 0.949638c4.278857 21.838019 5.635657 44.53181 4.030171 67.524266-1.716419 24.746667-9.063619 49.961448-21.834361 74.943391l-2.474667 4.833524z m-10.875124-192.046324l2.583162 7.209447c10.083962 28.14659 16.357181 52.359314 18.645333 71.968915 1.328762 11.42979 1.888305 22.708419 1.678629 33.729828 0.03901-0.493714 0.075581-0.989867 0.109714-1.482362 1.567695-22.448762 0.177981-44.579352-4.130133-65.822476l-0.488838 0.313295-2.193067-7.992076a290.46979 290.46979 0 0 0-11.451733-33.500647l-0.235276 0.151162-2.216229-6.050134 0.009752-0.006095-0.399847-1.098362c-2.274743-6.240305-8.365105-21.92701-18.105296-46.623695l-0.753371-1.910248 0.641219-2.279619-6.626743 1.388495c3.488914 6.870552 6.9888 14.32381 10.447238 22.2464 4.498286 10.339962 8.61501 20.392229 12.247772 29.910553l0.237714-0.152381z m98.085791 61.793524c0.9984 0.316952 1.999238 0.62659 3.003733 0.930133l5.449143 1.646933-1.270248 5.549105a138.054705 138.054705 0 0 1-3.87779 13.577752 193.969981 193.969981 0 0 0 5.920914-14.161676l1.705448-4.588495 4.848152 0.675352c7.391086 1.028876 15.225905 1.54941 23.288686 1.54941 18.958629 0 40.044495-2.87939 62.746819-8.565029 0.156038-3.056152 0.892343-6.087924 2.208914-9.084343-31.375848 11.623619-60.672 16.713143-87.293562 15.161296l-7.107048-0.413257 1.504305-6.959543c4.961524-22.946133 7.23139-47.151543 6.744991-71.943315l-0.0256-1.284876 1.973638-4.72259-9.230629-0.875276-0.120686 2.335695 2.218667-1.422629 0.722895 10.247315c1.767619 25.0368 0.582705 47.9488-3.521828 68.099657l-1.188572 5.835581-5.863619-1.053258a263.094857 263.094857 0 0 1-2.836723-0.533942z m-48.419353-28.923124c15.640381 7.4496 31.548952 12.909714 47.469714 16.290133 2.491733-14.7456 3.41699-31.0016 2.762362-48.508343l-50.232076 32.21821z m-108.629333 7.909181l5.5808 1.091047 0.040228-0.184076-0.031695 0.021943-0.971581-9.915733c-0.776533-7.920152-2.491733-20.862781-5.099276-38.469486l-0.256-1.733486 0.713143-1.627428-6.443886 0.749714c3.217067 10.860495 5.8624 25.646324 8.039619 44.858514l0.214553 1.895619-1.785905 3.313372z m169.774324-118.18301l-2.172343 7.722667 9.846247-6.314667-7.673904-1.408z m-66.044343-4.217905c11.115276 1.968762 19.987505 4.4032 26.822705 7.344762l0.199923 0.09021c2.012648 0.953295 3.535238 1.557943 4.666515 1.940724-0.023162-0.197486-0.047543-0.405943-0.0768-0.62781-0.686324-5.076114-1.501867-6.395124-1.537219-6.448762-1.308038-2.038248-5.451581-3.436495-11.365181-3.832685a34.628267 34.628267 0 0 0-2.294248-0.069486c-4.055771 0.001219-9.543924 0.5376-16.415695 1.603047z" fill="#517AEE" p-id="7981"></path><path d="M691.056152 390.268343c-13.898362-23.015619-25.085562-41.163581-33.581104-54.408533-7.928686 19.106133-18.768457 37.742933-32.533943 55.918933l-3.054934-2.714819c10.838552-18.6368 19.308495-37.889219 25.417143-57.781638 6.102552-19.869257 9.197714-34.525867 9.304991-43.940572l19.949714 2.39421c-2.133333 2.154057-4.241067 6.044038-6.334171 11.657752-2.0992 5.636876-4.077714 11.779657-5.944077 18.417372 16.991086 26.492343 29.866667 45.892267 38.6304 58.180266l-11.854019 12.277029z m36.344686 77.174247c-4.342248-8.112762-11.721143-20.323962-22.167162-36.608-10.436267-16.273067-18.282057-27.800381-23.497143-34.588038l17.695696-3.170742 96.924038-62.165334 1.214171-12.462324 22.74621 0.600991-4.270324 9.748724c17.704229 27.605333 28.630552 43.966171 32.789943 49.0752l-11.323734 13.104762-36.106971-56.295619-98.787962 63.361219 35.045181 54.637714-10.261943 14.761447z m-2.577067-161.926095c-11.680914-18.21379-21.377219-32.625371-29.074285-43.279847l25.281828-5.697829-3.208533 11.404191 16.4608 25.66339c5.688076-7.537371 12.192914-17.551848 19.527924-30.050743 7.330133-12.478171 11.758933-22.330514 13.276647-29.546057l21.54301 4.87741c-3.640076 3.905829-10.836114 13.193752-21.586895 27.866209-10.756876 14.695619-19.896076 26.399695-27.450515 35.131733l10.088838 15.729372c4.247162 6.624305 10.09859 7.543467 17.554286 2.761143l46.599314-29.887391c6.915657-2.8672 3.871695-13.765486-9.135542-32.699733l4.6592-2.989105c4.961524 7.736076 9.785295 13.205943 14.477409 16.419352 4.700648 3.228038 9.301333 4.95299 13.827657 5.152915 0.171886 8.469943-4.278857 15.213714-13.329066 20.234971l-56.850286 36.461714c-11.810133 7.575162-20.893257 6.389029-27.264-3.54499l-10.620343-16.557105c-10.922667 11.680914-21.583238 22.424381-31.968305 32.188953l-3.056152-2.714819c13.321752-14.768762 23.408152-27.079924 30.247009-36.923734z m24.510172 73.078248l26.344838-4.043581-3.738819 10.576457c9.81821 19.409676 13.715505 35.420648 11.707733 47.992686-2.013867 12.591543-9.067276 27.231086-21.143162 43.939352-12.097829 16.705829-29.535086 33.93219-52.347123 51.6864l-2.123581-3.312152c23.521524-22.096457 40.151771-42.310705 49.899276-60.630553 9.731657-18.311314 13.212038-33.39581 10.437485-45.252266-2.783086-11.834514-9.120914-25.4976-19.036647-40.956343z m47.433143 43.189638l-1.722515-4.737219c22.357333-8.880762 41.269638-15.953676 56.762515-21.216305 15.477029-5.254095 27.171352-7.881143 35.063466-7.883581 7.889676-0.002438 12.753676 2.133333 14.622477 6.395124 1.846857 4.255695 1.533562 7.196038-0.942324 8.783238-2.489295 1.598171-6.478019 2.204038-11.973486 1.838324-11.624838-0.340114-25.884038 1.01181-42.772724 4.064305-16.903314 3.063467-33.255619 7.306971-49.037409 12.756114z" p-id="7982" fill="#517AEE"></path><path d="M708.632381 537.657295l-8.462629-13.197409 3.691277-3.46941c22.914438-21.525943 39.296-41.392762 48.6912-59.050666 8.97341-16.88259 12.298971-30.678552 9.882819-40.99901-2.618514-11.137219-8.753981-24.278552-18.232077-39.054629l-1.487238-2.319847-31.676952 20.316647 33.952914 52.934705-18.267428 26.277791-4.696991-8.775924c-4.317867-8.067657-11.694324-20.244724-21.923352-36.193524-10.216838-15.931733-18.0224-27.426133-23.199695-34.165029l-6.104991-7.945752 12.803657-2.294248c-9.992533-16.518095-18.308876-30.053181-25.180647-40.990476-7.544686 15.8976-17.142248 31.572114-28.6208 46.729753l-3.980191 5.255314-11.708952-10.404571 2.506362-4.309334c10.554514-18.149181 18.919619-37.161448 24.860038-56.507733 5.895314-19.196343 8.935619-33.401905 9.035581-42.221714l0.0768-6.791315 39.071695 4.688457-8.773486 8.856381c-0.8448 0.854552-2.614857 3.224381-4.95299 9.4976-1.7408 4.676267-3.4304 9.81821-5.035886 15.316115a2876.879238 2876.879238 0 0 0 15.377067 23.706819l3.776609-4.187429c11.632152-12.897524 20.834743-23.981105 27.412724-33.015467-10.472838-16.247467-19.4304-29.535086-26.655695-39.537371l-5.407695-7.484952 44.267276-9.976686-5.23581 18.613638 10.131505 15.7952c4.2496-6.206171 8.9344-13.664305 13.99101-22.281752 6.966857-11.860114 11.194514-21.18339 12.5696-27.716267l1.273904-6.056229 37.923353 8.585753-7.23261 7.758019c-3.460876 3.713219-10.570362 12.9024-21.128533 27.312762-9.463467 12.928-17.787124 23.682438-24.797867 32.041447l7.650743 11.927162c1.901714 2.964724 3.346286 2.964724 3.889981 2.964724 0.938667 0 2.609981-0.354743 5.243124-2.043124l47.055238-30.179962 0.334019-0.138971c0.143848-1.219048-0.107276-6.870552-11.658972-23.687314l-3.562057-5.18461 15.084496-9.6768 3.291428 5.129753c4.494629 7.007086 8.797867 11.946667 12.790248 14.682209 3.741257 2.568533 7.324038 3.944838 10.653257 4.092343l5.7088 0.253562 0.115809 5.713676c0.149943 7.43619-2.561219 17.898057-16.288914 25.590248l-16.925257 10.8544 18.990324 0.501028-6.596267 15.057676c16.492495 25.671924 26.792229 41.063619 30.623695 45.771581l3.228038 3.964343-11.905219 13.776457c1.694476-0.5888 3.346286-1.158095 4.957867-1.705447 16.260876-5.519848 28.368457-8.20419 37.021257-8.207848 10.491124 0 17.284876 3.377981 20.206934 10.041295 4.378819 10.092495-0.804571 14.805333-3.235353 16.363277-3.6352 2.333257-8.660114 3.236571-15.548952 2.796495-11.162819-0.318171-25.079467 1.021562-41.402514 3.974095-16.580267 3.004952-32.774095 7.216762-48.130439 12.5184l-5.667352 1.956571-3.062248-8.417523c0.414476 4.593371 0.292571 8.916114-0.3584 12.995047-2.184533 13.65821-9.453714 28.884114-22.222019 46.549334-12.395276 17.115429-30.407924 34.920838-53.544228 52.926171l-5.269943 4.102095z m-16.227962-137.130666c4.810362 6.842514 10.821486 15.88419 17.960229 27.016533 7.289905 11.3664 13.175467 20.884724 17.581104 28.436724l2.388115-3.435276-33.835886-52.751848-4.093562 0.733867z m66.924495-17.299505c7.504457 12.821943 12.53181 24.539429 14.974781 34.928152 2.439314 10.422857 0.839924 22.473143-4.893257 36.583619 4.386133-8.273676 7.138743-15.828114 8.218819-22.582857 1.794438-11.234743-1.950476-26.132724-11.128686-44.278248l-1.176381-2.325942 1.212953-3.431619-7.208229 1.106895z m19.218286 1.498209c5.061486 10.349714 8.467505 19.722971 10.249752 28.245334l3.996038-1.588419c15.038171-5.973333 28.628114-11.168914 40.608915-15.525791l-33.837105-52.753067-44.30141 28.414781 29.557029-4.536076-6.273219 17.743238z m108.337981 9.317181c-7.137524 0.002438-18.122362 2.494171-32.669257 7.408153 13.230324-2.001676 24.801524-2.864762 34.536838-2.579505l0.225524 0.010971c0.892343 0.058514 1.744457 0.08899 2.529524 0.088991 2.59779 0 4.120381-0.327924 4.954209-0.615619a10.554514 10.554514 0 0 0-0.5632-1.588419c-1.077638-2.456381-6.662095-2.724571-9.013638-2.724572z m-83.638857-67.781485l34.990324 54.556038 2.772114-3.208534c-5.513752-7.656838-15.434362-22.663314-30.094629-45.520457l-1.761523-2.746514 1.94438-4.437333-8.01158-0.212115-0.174324 1.783467 0.335238-0.214552z m-146.933029-3.502324l6.292724 9.810895c7.554438 11.778438 17.255619 27.451733 29.566781 47.767162l2.851352-2.952533c-8.621105-12.344076-20.665295-30.568838-35.875352-54.282972l-1.477486-2.305219 0.739962-2.635581c1.915124-6.810819 3.968-13.166933 6.100114-18.894019a74.119314 74.119314 0 0 1 1.884648-4.611657l-4.136228-0.496152c-0.863086 7.776305-2.984229 17.607924-6.41341 29.719161l0.466895-1.119085z m31.024762 21.402819c8.402895 12.776838 15.274667 22.914438 20.534857 30.289676l2.920838 4.094781 79.781791-51.170743 0.195047-2.000457-19.9936 12.823162c-6.07939 3.899733-11.8272 5.878248-17.083733 5.878247-5.190705 0-12.631771-1.954133-18.602667-11.26278l-6.409752-9.992534c-9.183086 9.635352-18.199162 18.619733-26.872686 26.773943l-4.058209 3.815619-10.411886-9.248914z m43.164038-41.081905l14.851657 23.152152c3.249981 5.0688 6.317105 5.653943 8.340724 5.653943 2.428343 0 5.318705-0.942324 8.610134-2.805028a16.981333 16.981333 0 0 1-3.599848 0.39619c-3.947276 0-9.608533-1.487238-14.151924-8.573562l-33.338514-51.976533 1.181257-4.195962-6.384152 1.439695c6.836419 9.809676 14.86141 21.892876 23.944533 36.054553l0.546133 0.854552z m91.785753-25.6c1.392152 4.444648 1.595733 8.10179 0.687542 11.168914a11.665067 11.665067 0 0 1-0.925257 2.246705c5.429638-3.165867 7.82141-6.528 8.833219-9.528076-2.8672-0.835048-5.738057-2.133333-8.595504-3.887543z m-50.890362-36.247162c-2.332038 6.936381-6.403657 15.318552-12.329448 25.40861-0.649752 1.106895-1.294629 2.196724-1.933409 3.268266a1014.247619 1014.247619 0 0 0 4.992-6.757181c6.406095-8.74301 11.527314-15.547733 15.446552-20.520228l-6.175695-1.399467z" fill="#517AEE" p-id="7983"></path></svg>