<?xml version="1.0" standalone="no"?><!DOCTYPE svg PUBLIC "-//W3C//DTD SVG 1.1//EN" "http://www.w3.org/Graphics/SVG/1.1/DTD/svg11.dtd"><svg class="icon" width="200px" height="200.00px" viewBox="0 0 1024 1024" version="1.1" xmlns="http://www.w3.org/2000/svg"><path d="M377.333928 175.996386h191.890378c20.214391 0 37.271882-19.056008 37.271882-42.642192 0-23.531949-17.004279-42.536792-38.377053-42.536792h-190.785207c-21.267373 0-38.271652 19.004843-38.271652 42.536792 0.001023 23.531949 17.057491 42.642193 38.271652 42.642192zM792.857643 681.699983c-69.122287 0-125.189234 56.276724-125.189234 125.71419 0 69.490677 56.013735 125.768425 125.189234 125.768425s125.241422-56.224536 125.241422-125.768425c0-69.438489-56.120159-125.71419-125.241422-125.71419z m50.370201 151.352104h-63.011103c-1.003863 0.252757-2.046612 0.401136-3.12927 0.401136-7.073092 0-12.806677-5.733585-12.806677-12.806677v-81.498153c0-7.073092 5.733585-12.806677 12.806677-12.806677 7.073092 0 12.806677 5.733585 12.806677 12.806677v68.29034h53.334719c7.073092 0 12.806677 5.733585 12.806677 12.806677-0.001023 7.074116-5.735631 12.806677-12.8077 12.806677z" fill="#272536" /><path d="M778.432095 642.582057v0.002047c22.321378 0 43.536562 4.579295 62.805418 13.002129V234.220463c0-57.803497-31.007201-97.813746-95.970772-97.813747h-86.494956c0.842181 4.63353 1.369184 9.371438 1.369183 14.161535 0.052189 35.798321-25.848715 71.01745-56.592926 71.01745H337.90594c-32.376385 0-58.278311-35.219129-58.278312-71.01745 0.052189-4.737908 0.579191-9.529027 1.421373-14.161535H193.501062c-70.332858 0-87.60115 40.010249-87.60115 97.813747v572.087516c0 62.067614 24.742521 96.81193 92.917226 96.81193h458.05846c-22.899546-27.533077-36.69269-63.067384-36.69269-101.761662 0-87.706551 70.808696-158.77619 158.249187-158.77619z m-487.908302-288.910039h374.934274c13.846356 0 25.532513 12.94994 26.585495 27.900444 0 13.951757-14.529925 28.90226-28.375257 28.90226H287.682072c-13.898545 0-22.690792-14.950504-22.690792-28.90226 0.001023-13.950733 11.68718-27.900443 25.532513-27.900444z m168.830173 377.513007H287.682072c-13.898545 0-22.690792-14.950504-22.690792-28.902261 0-13.950733 11.686157-27.848255 25.532513-27.848255h170.620959c13.897521 0 25.583678 12.844539 26.63666 27.848255 0 13.951757-14.582113 28.90226-28.427446 28.902261zM286.10311 573.305251c-13.846356 0-27.690666-17.056468-27.690666-31.007201 0-13.898545 11.686157-25.743314 25.584702-25.743314h374.933251c13.846356 0 25.532513 10.791787 26.637684 25.743314 0 13.950733-9.581216 31.007201-23.426549 31.007201H286.10311z"  /></svg>