<svg t="1714374102000" class="icon" viewBox="0 0 1024 1024" version="1.1" xmlns="http://www.w3.org/2000/svg" p-id="15094" width="200" height="200"><path d="M511.9 64.9c-247.1 0-447.4 200.3-447.4 447.4 0 247.1 200.3 447.4 447.4 447.4 247.2 0 447.5-200.3 447.5-447.4C959.3 265.2 759 64.9 511.9 64.9z" fill="#FFE8EB" p-id="15095"></path><path d="M523 563.7c23.6 0 47.4-16.8 50.9-52.8l27.6-156.6c0-34.1-39.6-65.8-76.4-65.8-36.8 0-80.2 30.3-80.2 64.4L475.7 514c7.5 36.5 24.9 45.6 47.3 49.7z m0.1 44.5c-36.8 0-66.7 28.6-66.7 63.9s29.8 63.9 66.7 63.9c36.8 0 66.7-28.6 66.7-63.9s-29.9-63.9-66.7-63.9z" fill="#FF6B6A" p-id="15096"></path></svg>