<?xml version="1.0" standalone="no"?><!DOCTYPE svg PUBLIC "-//W3C//DTD SVG 1.1//EN" "http://www.w3.org/Graphics/SVG/1.1/DTD/svg11.dtd"><svg class="icon" width="64px" height="64.00px" viewBox="0 0 1024 1024" version="1.1" xmlns="http://www.w3.org/2000/svg"><path d="M867.515733 264.635733a34.133333 34.133333 0 0 0-68.266666 0V852.821333a34.133333 34.133333 0 1 0 68.266666 0V264.635733zM682.154667 381.576533a34.133333 34.133333 0 0 1 34.133333 34.133334v437.1968a34.133333 34.133333 0 1 1-68.266667 0V415.709867a34.133333 34.133333 0 0 1 34.133334-34.133334z m-117.0944 186.094934a34.133333 34.133333 0 0 0-68.266667 0v284.928a34.133333 34.133333 0 0 0 68.266667 0V567.671467z m-185.378134 97.262933a34.133333 34.133333 0 0 1 34.133334 34.133333V853.333333a34.133333 34.133333 0 0 1-68.266667 0v-154.2656a34.133333 34.133333 0 0 1 34.133333-34.133333z m-151.2448 114.3808a34.133333 34.133333 0 0 1 34.133334 34.133333v38.8608a34.133333 34.133333 0 0 1-68.266667 0v-38.8608a34.133333 34.133333 0 0 1 34.133333-34.133333z" fill="#242E3E" /><path d="M723.729067 145.152a34.5088 34.5088 0 0 1 8.3968 11.349333 34.013867 34.013867 0 0 1-7.082667 38.4512l-510.293333 510.293334a34.133333 34.133333 0 0 1-48.2816-48.2816L618.666667 204.8h-116.104534a34.133333 34.133333 0 1 1 0-68.266667h198.5024c8.704 0 16.657067 3.242667 22.6816 8.618667z" fill="#FF9C00" /></svg>