<?xml version="1.0" standalone="no"?><!DOCTYPE svg PUBLIC "-//W3C//DTD SVG 1.1//EN" "http://www.w3.org/Graphics/SVG/1.1/DTD/svg11.dtd"><svg class="icon" width="200px" height="200.00px" viewBox="0 0 1024 1024" version="1.1" xmlns="http://www.w3.org/2000/svg"><path fill="#6FCEFF" d="M824.8 564.5H205.6c-56.9 0-103.2-46.3-103.2-103.2v-21.1c0-56.9 46.3-103.2 103.2-103.2h619.2c56.9 0 103.2 46.3 103.2 103.2v21.1c0 56.9-46.3 103.2-103.2 103.2z m-619.2-145c-11.4 0-20.6 9.3-20.6 20.6v21.1c0 11.4 9.3 20.6 20.6 20.6h619.2c11.4 0 20.6-9.3 20.6-20.6v-21.1c0-11.4-9.3-20.6-20.6-20.6H205.6z"  /><path fill="#6FCEFF" d="M753.5 927H276.9c-56.3 0-102.1-45.8-102.1-102.1V482h680.6v343c0.1 56.2-45.7 102-101.9 102zM257.4 564.5v260.4c0 10.8 8.7 19.5 19.5 19.5h476.5c10.7 0 19.5-8.7 19.5-19.5V564.5H257.4zM514.2 419.5c-21.6 0-39.8-16.9-41.2-38.8-0.6-9.4-12.3-231.4 150.4-276.2 86-23.5 143.5 22.3 160.6 74.9 16.5 50.9-5.6 102.3-51.6 119.6-21.3 8-45.2-2.7-53.2-24s2.7-45.2 24-53.2c5.2-2 3.7-12.2 2.2-16.8-5.4-16.5-24-30.6-60.1-20.7-97.3 26.7-90 189.8-89.9 191.5 1.4 22.8-15.9 42.3-38.7 43.7h-2.5zM305.8 304.9c-6.2 0-12.6-1.4-18.6-4.4-35.1-17.7-58.2-51.2-61.7-89.4-3.1-33.7 10.1-65.4 35.5-84.8 31.8-24.3 72.6-30 115-15.9 48.4 16.1 91.3 55.2 102 93.1 6.2 21.9-6.5 44.8-28.5 51-21.8 6.2-44.7-6.5-50.9-28.4-2.7-7.6-23.1-29.7-50.8-38-22.8-6.9-33.3 1.2-36.7 3.8-3.9 3-3.6 9.6-3.4 11.5 0.7 7.6 5.5 17.7 16.8 23.4 20.3 10.3 28.5 35.1 18.2 55.5-7.2 14.3-21.8 22.6-36.9 22.6z"  /><path fill="#6FCEFF" d="M515.2 927c-22.8 0-41.3-18.5-41.3-41.3V523.2c0-22.8 18.5-41.3 41.3-41.3 22.8 0 41.3 18.5 41.3 41.3v362.5c0 22.8-18.5 41.3-41.3 41.3z"  /></svg>