<?xml version="1.0" standalone="no"?><!DOCTYPE svg PUBLIC "-//W3C//DTD SVG 1.1//EN" "http://www.w3.org/Graphics/SVG/1.1/DTD/svg11.dtd"><svg class="icon" width="200px" height="200.00px" viewBox="0 0 1024 1024" version="1.1" xmlns="http://www.w3.org/2000/svg"><path fill="#6FCEFF" d="M192.034133 176.452267c2.056533 123.008 98.909867 228.0832 206.353067 272.311466 22.784-37.7344 64.183467-62.967467 111.479467-62.967466 47.872 0 89.706667 25.856 112.3072 64.3584C732.5952 406.306133 832 298.496 832 172.458667h0.034133v201.7408c-46.011733 64.315733-113.621333 112.994133-192.034133 141.725866-1.834667 0.674133 0.439467 18.5344-1.403733 19.178667-9.271467 62.775467-63.3728 110.954667-128.7296 110.954667-65.911467 0-120.375467-48.9984-128.955734-112.554667-0.785067-0.810667-1.1776-6.6688-1.1776-17.578667L192.034133 259.831467V176.452267c2.056533 123.008 98.909867 228.0832 206.353067 272.311466A129.527467 129.527467 0 0 0 379.733333 515.925333c-76.445867-28.928-142.472533-77.525333-187.6992-141.149866v482.645333a17.066667 17.066667 0 0 0 17.066667 17.066667h605.866667a17.066667 17.066667 0 0 0 17.066666-17.066667V376.9728c-45.568 63.607467-112.6656 111.253333-192.034133 138.9568 0-20.893867-16.3584-63.2832-17.826133-65.774933C732.5952 406.306133 832 298.496 832 172.458667h0.034133V166.229333a17.066667 17.066667 0 0 0-17.066666-17.066666h-605.866667a17.066667 17.066667 0 0 0-17.066667 17.066666v10.2272zM213.333333 87.1296h597.333334c47.1296 0 85.333333 38.208 85.333333 85.333333v682.666667c0 47.1296-38.203733 85.333333-85.333333 85.333333H213.333333c-47.1296 0-85.333333-38.203733-85.333333-85.333333v-682.666667c0-47.125333 38.203733-85.333333 85.333333-85.333333z m298.666667 490.666667c35.345067 0 64-28.650667 64-64 0-35.345067-28.654933-64-64-64-35.345067 0-64 28.654933-64 64 0 35.349333 28.654933 64 64 64z"  /></svg>