<?xml version="1.0" standalone="no"?><!DOCTYPE svg PUBLIC "-//W3C//DTD SVG 1.1//EN" "http://www.w3.org/Graphics/SVG/1.1/DTD/svg11.dtd"><svg class="icon" width="200px" height="200.00px" viewBox="0 0 1024 1024" version="1.1" xmlns="http://www.w3.org/2000/svg"><path d="M734.784 109.696c42.816 0 81.728 24.96 99.648 63.808l69.76 151.232c6.656 14.4 10.112 30.08 10.112 45.952v433.92c0 60.544-49.152 109.696-109.76 109.696H219.52a109.696 109.696 0 0 1-109.76-109.76V370.688c0-15.872 3.456-31.552 10.112-45.952l69.76-151.232c17.92-38.912 56.832-63.808 99.648-63.808h445.568zM525.12 475.52h-26.24c-8.192 0-11.136 0.832-14.08 2.432a16.64 16.64 0 0 0-6.912 6.912c-1.6 2.944-2.432 5.888-2.432 14.08v122.816h-47.36a18.304 18.304 0 0 0-12.864 31.232l83.84 83.84 3.904 3.008c7.04 3.968 16 2.944 21.952-3.008l83.84-83.84a18.304 18.304 0 0 0-12.928-31.232h-47.296v-122.88c0-8.128-0.832-11.072-2.432-14.08a16.64 16.64 0 0 0-6.912-6.848c-2.944-1.6-5.888-2.432-14.08-2.432z m200.832-292.608H298.048a36.544 36.544 0 0 0-33.408 21.76l-52.096 117.12a18.304 18.304 0 0 0 16.768 25.728h565.376a18.304 18.304 0 0 0 16.768-25.728l-52.096-117.12a36.544 36.544 0 0 0-33.408-21.76z"   /></svg>