<svg t="1715841257742" class="icon" viewBox="0 0 1024 1024" version="1.1" xmlns="http://www.w3.org/2000/svg" p-id="20374" width="256" height="256"><path d="M357.3 278.2l16.9-13.1 21.5 1.9-8.4-18.7 8.4-18.7-21.5 1.9-16.9-13.1-4.7 18.7-18.7 10.1 18.7 10.3 4.7 20.7z m300.3-22.5l15 15 6.6-19.8 18.7-9.5-17.9-13.1-3.6-20.6-16.9 12.3-20.6-3.6 6.6 20.6-9.5 18.7h21.6z m-168.4-24.3l20.6-5.5 19.8 10.3v-20.6l15-14.1-20.6-7.4-10.1-18.8-12.2 15.8-21.5 2.8 13.1 16.9-4.1 20.6zM267.4 355.8l15 15 7.4-19.8 19.8-9.5-16.9-12-2.8-20.6-17.9 12.2-20.6-2.8 5.5 19.8-10.3 18.7 20.8-1z m404.3 404.7l-15.8 13.1-21.7-1.9 8.5 18.7-8.5 18.7 21.7-1.9 15.8 13.1 4.7-19.8 18.7-10.3-18.7-10.3-4.7-19.4z m-131.1 36.4l-20.6 5.5-18.7-10.3v20.6l-15 14.1 20.7 7.4 9.5 18.7 12.2-15.8 20.6-2.8-11.2-16.9 2.5-20.5z m-158.3-23.6l-15-15-6.5 19.8-18.7 9.5 16.9 13.1 3.6 20.6 16.9-12.2 20.6 3.6-6.5-20.6 9.5-18.7-20.8-0.1zM512.6 64.7c-246.4 0-446.7 200.2-446.7 446.6C65.9 757.5 266.3 958 512.6 958c246.2 0 446.7-200.5 446.7-446.7S758.8 64.7 512.6 64.7z m0 863.3C283.2 928 95.9 740.7 95.9 511.3S283.2 94.6 512.6 94.6s416.7 186.3 416.7 416.7c0 229.4-187.2 416.7-416.7 416.7z m0-791.2c-207 0-374.6 167.6-374.6 374.5 0 207 167.6 374.6 374.5 374.6 207 0 374.5-167.6 374.5-374.6-0.9-207-168.5-374.5-374.4-374.5z m277.9 535.5l-15-13.1-5.5 20.6-18.7 11.2 17.9 11.2 3.6 20.6 16.9-13.1 20.6 1.9c-64.7 95.7-173.3 159.2-297 159.2-197.5 0-357.7-160.2-357.7-357.7s160.2-357.7 357.7-357.7S870.9 315.5 870.9 513c0 73.1-22.5 141.4-60.1 198.3l-6.6-18.7 9.2-19.8-22.9-0.5zM659.7 331.6c-41.6-33.8-93.3-52.3-147.1-52.5-111.5 0-207 79.5-228.5 188.2l15 2.8c18.7-102.3 108.6-176 213.5-176 50.6 0 99.1 17.9 137.7 49.5l9.4-12z m-147.1 397c-50.3 0-99-17.6-137.7-49.7l-9.5 11.2c41.6 33.7 93.3 52.3 147.1 52.5 111.5 0 207-79.7 228.3-188.2l-15-2.8c-19.3 102.9-109.3 177-213.2 177z" fill="#517AEE" p-id="20375"></path><path d="M324.1 680.5c-20.4 7.7-34.2 1.7-41.1-17.9L251.5 575l20.7-7.7 8.2 22.6 96.5-36.2-15.7-43.8-121.4 45.5-6.8-19 141.4-53.3 29.1 81.1L287.1 608l14.9 41.7c3.8 12.3 11.7 16.1 23.4 11.2l73.7-27.5c13.3-3.8 18.7-12 16.4-24.4-0.9-2.4-1.6-6-2.2-10.8-1.3-4.6-2.4-9-3.3-13.8 4.7-0.2 11.4-0.6 19.8-1.6 1.1 0.2 1.9 0.2 2.4-0.2 1.9 9.5 3.6 19.1 5.4 28.8 3.2 17.6-5.2 29.7-25.3 35.9-0.1 0.3-88.2 33.2-88.2 33.2z m202.4-147.4c-6-4.4-15.3-10.4-28.5-18.3-4.1-2.2-8.2-4.6-12.2-7l10.6-15.5c16.6 8.7 30.5 16.4 41.6 23.4l-11.5 17.4z m-52-43.5l-6.3-17.6 68.6-25.6-11.1-30.7 20.1-7.4 11.1 30.7 25.6-9.8 6.3 17.6-25.6 9.6 22.6 63.6c7.3 18.7 1.9 31.8-16.3 38.4-6.5 3-15.5 6.6-26.9 10.8-1.1-1.6-1.9-3.2-2.7-4.9-2.8-4.6-5.7-8.9-8.7-13.3 6.8-1.9 15-4.7 24.7-8.4 10.3-2.8 13.3-9 8.5-19L543 463.5l-68.5 26.1zM471 633.5l-16.6-16.9c3.3-5.7 8.4-15.8 15-30.5l-18.7-51.7-20.7 7.7-6.8-19 39.2-14.7 25.3 70.2c15.2 10.3 31.5 12.2 49 5.7 41-15.3 71.3-27 91.2-35.1 0 6.2 0.2 13 0.2 20.7-24.2 9-54.2 19.8-89.8 32.1-19.8 8.1-37.6 7-53.8-3-6.4 12.5-10.8 24.1-13.5 34.5z m-22-137.6c-5.5-5.1-15.7-13.3-30.5-24.2-1.6-1.1-3-2.1-4.4-3.3l12.5-14.7c11.2 6.8 23.2 15.2 36.7 25.3L449 495.9z m282.5-64.5c2.1 6 4 11.7 5.5 17.9l29.3-11.1-10.5-29.2-28.6 10.8 4.3 11.6z m-20.9-57.5l10.4 29.3 28.6-10.8-10.4-29.3-28.6 10.8z m5.2 161.3c-5.2-3.2-10.8-6-16.3-8.9-4.7-2.7-9.5-5.2-14.2-8.1l9.2-15.2c11.2 5.2 21.2 9.8 30 13.6 6-18.3 1.9-45.1-11.7-80.3l-26.7-74.5 64.2-24.2 52.8 146.9c4.4 12.2 0.9 20.7-10.3 25.3-1.9 0.6-5.4 2.1-10.8 4-5.1 2.4-8.7 4.1-11.2 5.1-1.1-1.3-2.8-4.1-5.5-8.7l-5.2-8.1c5.5-1.6 11.2-3.3 16.8-5.4 6.8-1.9 9-6 6.5-11.7l-11.1-30.7-30 11.2c6.2 23.1 6.2 45.5-0.2 67.2-5.1-1.7-10.3-3.3-15.5-4.9-1.9-0.9-3.5-1.6-4.6-1.6l1.4-3c0.2-1.3 0.2-2.1 0.6-2.8l-8.2 14.8z m-65.5-54.3l6 16.8 31.5-11.7-6-16.8-31.5 11.7z m9.2 81.9c-9-4.1-15.2-6.8-18-7.3 8.1-15.2 13.8-28.1 16.9-38.7l18.7 4.6c-5.2 14.1-11.1 28-17.6 41.4z m-20.4-113.5l6 16.8 31.5-11.7-6-16.8-31.5 11.7z m-11.2-31.2l6 16.8 31.5-11.7-6-16.8-31.5 11.7z m-29.3 11l-5.7-16.1 11.4-4.1-6.5-18.3 17.9-6.8 6.8 18.2 31.5-11.7-6.8-19 17.9-6.8 6.8 19 11.4-4.1 5.7 16.1-11.4 4.1 28.6 79.7 13.6-5.1 5.7 16.1-94.4 35.4-5.7-16.1 13.6-5.1-28.8-79.7-11.6 4.3z" fill="#517AEE" p-id="20376"></path></svg>