<?xml version="1.0" standalone="no"?><!DOCTYPE svg PUBLIC "-//W3C//DTD SVG 1.1//EN" "http://www.w3.org/Graphics/SVG/1.1/DTD/svg11.dtd"><svg class="icon" width="200px" height="200.00px" viewBox="0 0 1024 1024" version="1.1" xmlns="http://www.w3.org/2000/svg"><path  d="M517.292448 1023.39542a382.700393 382.700393 0 0 0 259.260286-82.213276 278.130876 278.130876 0 0 0 94.833734-221.459005A230.653912 230.653912 0 0 0 808.524563 554.274932a267.734022 267.734022 0 0 0-165.38811-79.208405v-2.884676A275.726979 275.726979 0 0 0 778.475851 386.002146a217.372381 217.372381 0 0 0 53.727097-145.916545A205.412994 205.412994 0 0 0 745.662658 64.24054 412.568813 412.568813 0 0 0 499.263221 0.837758H151.178944v1022.557662H517.292448z m-80.590645-841.36393Q631.477553 182.03149 631.477553 293.452113a108.535947 108.535947 0 0 1-48.73901 94.533248 230.834204 230.834204 0 0 1-133.416281 33.774752H331.771702V182.03149H436.761901z m20.132637 420.681965a230.954399 230.954399 0 0 1 129.089266 30.409296A97.297729 97.297729 0 0 1 631.477553 718.941872a105.290686 105.290686 0 0 1-45.734139 90.687012 214.968484 214.968484 0 0 1-126.805564 32.692999H331.711604v-239.428136h125.182934z"  /></svg>