<svg t="1715840948462" class="icon" viewBox="0 0 1024 1024" version="1.1" xmlns="http://www.w3.org/2000/svg" p-id="13869" width="256" height="256"><path d="M512 512m-426.666667 0a426.666667 426.666667 0 1 0 853.333334 0 426.666667 426.666667 0 1 0-853.333334 0Z" fill="#517AEE" fill-opacity=".06" p-id="13870"></path><path d="M331.008 606.72h360.021333V768h-38.016v-27.050667H369.066667V768h-38.058667v-161.28z m38.058667 34.261333v64.597334h283.946666v-64.597334H369.066667zM331.008 563.626667V402.901333a596.522667 596.522667 0 0 1-63.232 65.194667L256 428.8c55.722667-52.437333 95.36-109.866667 118.4-171.733333l37.546667 7.722666c-6.485333 16.554667-13.44 32.597333-21.461334 48.64h132.864a370.346667 370.346667 0 0 0-26.24-50.858666L536.746667 256c8.533333 17.109333 16.64 36.437333 24.106666 57.429333h155.904v33.152h-162.858666v40.32h139.306666v31.488h-139.306666v38.656h140.373333v31.488h-140.373333v41.386667H725.333333v33.706667H331.008z m36.949333-33.706667h147.882667v-41.386667H367.957333v41.386667z m0-72.874667h147.882667v-38.656H367.957333v38.656z m0-70.144h147.882667v-40.32H371.712a37.333333 37.333333 0 0 0-3.754667 6.058667v34.261333z" fill="#517AEE" p-id="13871"></path><path d="M938.666667 512c0 235.648-191.018667 426.666667-426.666667 426.666667S85.333333 747.648 85.333333 512 276.352 85.333333 512 85.333333s426.666667 191.018667 426.666667 426.666667z m-21.333334 0a405.333333 405.333333 0 1 0-810.666666 0 405.333333 405.333333 0 0 0 810.666666 0z" fill="#517AEE" p-id="13872"></path></svg>