<?xml version="1.0" standalone="no"?><!DOCTYPE svg PUBLIC "-//W3C//DTD SVG 1.1//EN" "http://www.w3.org/Graphics/SVG/1.1/DTD/svg11.dtd"><svg t="1705397245475" class="icon" viewBox="0 0 1024 1024" version="1.1" xmlns="http://www.w3.org/2000/svg" p-id="4391" xmlns:xlink="http://www.w3.org/1999/xlink" width="200" height="200"><path d="M160 708.288v-428.8C160 267.52 173.44 256 192 256h640c18.56 0 32 11.584 32 23.488v657.024c0 11.904-13.44 23.488-32 23.488h-320a32 32 0 1 0 0 64h320c52.096 0 96-38.08 96-87.488V279.488C928 230.08 884.096 192 832 192h-640C139.904 192 96 230.08 96 279.488v428.8a32 32 0 1 0 64 0z" fill="#58595B" p-id="4392"></path><path d="M320 384m-64 0a64 64 0 1 0 128 0 64 64 0 1 0-128 0Z" fill="#58595B" p-id="4393"></path><path d="M704 384m-64 0a64 64 0 1 0 128 0 64 64 0 1 0-128 0Z" fill="#58595B" p-id="4394"></path><path d="M800 256c0-142.4-129.792-256-288-256S224 113.6 224 256h64c0-104.96 99.392-192 224-192S736 151.04 736 256h64zM224 730.688v266.624c0 14.72 14.336 26.688 32 26.688s32-11.968 32-26.688v-266.624c0-14.72-14.336-26.688-32-26.688s-32 11.968-32 26.688z" fill="#58595B" p-id="4395"></path><path d="M122.688 896h266.624c14.72 0 26.688-14.336 26.688-32s-11.968-32-26.688-32H122.688c-14.72 0-26.688 14.336-26.688 32s11.968 32 26.688 32z" fill="#58595B" p-id="4396"></path></svg>