<?xml version="1.0" standalone="no"?><!DOCTYPE svg PUBLIC "-//W3C//DTD SVG 1.1//EN" "http://www.w3.org/Graphics/SVG/1.1/DTD/svg11.dtd"><svg t="1634720312456" class="icon" viewBox="0 0 1029 1024" version="1.1" xmlns="http://www.w3.org/2000/svg" p-id="4050" xmlns:xlink="http://www.w3.org/1999/xlink" width="200.9765625" height="200"><defs><style type="text/css"></style></defs><path d="M514.6624 6.5536c-93.7984 0-169.984 76.1856-169.984 169.984 0 8.6016 0.6144 17.2032 1.8432 25.6 3.4816 23.7568 12.0832 45.8752 24.3712 65.3312 30.1056 47.5136 83.1488 79.2576 143.7696 79.2576s113.664-31.5392 143.7696-79.2576c12.288-19.456 20.8896-41.5744 24.3712-65.3312 1.2288-8.3968 1.8432-16.9984 1.8432-25.6 0-93.7984-76.1856-169.984-169.984-169.984z m73.728 238.1824c-18.432 19.8656-44.6464 32.3584-73.728 32.3584s-55.296-12.4928-73.728-32.3584c-15.9744-17.2032-26.0096-40.1408-26.624-65.3312v-2.8672c0-55.296 45.056-100.352 100.352-100.352s100.352 45.056 100.352 100.352v2.8672c-0.6144 25.1904-10.6496 48.128-26.624 65.3312zM169.984 644.3008h-5.12c-24.1664 0.6144-47.104 6.5536-67.7888 16.384-57.344 27.2384-97.0752 85.8112-97.0752 153.6 0 93.7984 76.1856 169.984 169.984 169.984 42.1888 0 80.896-15.36 110.592-40.7552 17.8176-15.1552 32.3584-33.9968 42.5984-55.296 10.8544-22.3232 16.9984-47.5136 16.9984-73.9328-0.2048-93.7984-76.3904-169.984-170.1888-169.984z m54.272 254.5664c-15.5648 10.0352-34.2016 15.9744-54.272 15.9744-55.296 0-100.352-45.056-100.352-100.352 0-35.0208 18.0224-65.9456 45.4656-83.968 15.7696-10.4448 34.816-16.5888 55.0912-16.5888 4.5056 0 8.8064 0.2048 13.1072 0.8192 49.152 6.5536 87.2448 48.7424 87.2448 99.5328 0 9.8304-1.4336 19.2512-4.096 28.2624-6.9632 23.552-22.1184 43.4176-42.1888 56.32zM932.2496 660.8896c-20.6848-9.8304-43.6224-15.5648-67.7888-16.384h-5.12c-93.7984 0-169.984 76.1856-169.984 169.984 0 26.4192 6.144 51.6096 16.9984 73.9328 10.24 21.2992 24.7808 40.1408 42.5984 55.296 29.696 25.3952 68.4032 40.7552 110.592 40.7552 94.0032 0 169.984-76.1856 169.984-169.984 0-67.7888-39.7312-126.3616-97.28-153.6z m-72.9088 253.952c-19.8656 0-38.7072-5.9392-54.272-15.9744-20.0704-12.9024-35.2256-32.768-41.984-56.1152-2.6624-9.0112-4.096-18.432-4.096-28.2624 0-50.9952 38.0928-93.184 87.2448-99.5328 4.3008-0.6144 8.8064-0.8192 13.1072-0.8192 20.2752 0 39.3216 6.144 55.0912 16.5888 27.2384 18.0224 45.4656 48.9472 45.4656 83.968 0 55.0912-45.056 100.1472-100.5568 100.1472z" p-id="4051"></path><path d="M414.3104 179.4048c-23.3472 5.7344-46.08 13.312-67.7888 22.7328C196.4032 267.264 91.3408 416.768 91.3408 590.848c0 23.7568 2.048 47.104 5.7344 69.8368 3.8912 23.9616 10.0352 47.3088 17.8176 69.632 15.7696-10.4448 34.816-16.5888 55.0912-16.5888 4.5056 0 8.8064 0.2048 13.1072 0.8192-8.3968-22.3232-14.5408-45.8752-18.2272-70.0416-2.6624-17.6128-4.096-35.4304-4.096-53.6576 0-94.4128 36.864-183.296 103.6288-250.0608 31.1296-31.1296 67.1744-55.9104 106.496-73.3184 22.3232-10.0352 45.8752-17.6128 70.0416-22.7328-15.9744-17.2032-26.0096-40.1408-26.624-65.3312z m268.4928 22.7328c-21.7088-9.4208-44.2368-16.9984-67.7888-22.7328-0.8192 25.1904-10.6496 47.9232-26.624 65.3312 24.1664 5.12 47.5136 12.6976 70.0416 22.7328 39.1168 17.408 75.1616 42.1888 106.496 73.3184 66.7648 66.7648 103.6288 155.648 103.6288 250.0608 0 18.0224-1.4336 36.0448-4.096 53.6576-3.6864 24.1664-9.8304 47.7184-18.2272 70.4512 4.3008-0.6144 8.8064-0.8192 13.1072-0.8192 20.2752 0 39.3216 6.144 55.0912 16.5888 7.7824-22.3232 13.9264-45.6704 17.8176-69.632 3.8912-22.7328 5.7344-46.08 5.7344-69.8368 0-174.4896-105.0624-323.9936-255.1808-389.12z m80.2816 640.6144c-17.6128 17.408-36.6592 32.5632-56.7296 45.6704-56.5248 36.6592-122.6752 56.32-191.6928 56.32s-134.9632-19.6608-191.6928-56.32c-20.2752-13.1072-39.3216-28.2624-56.7296-45.6704-6.7584 23.3472-22.1184 43.2128-41.984 56.1152 17.408 16.384 36.2496 31.3344 56.32 44.6464 67.1744 44.6464 147.6608 70.656 234.2912 70.656s167.1168-26.0096 234.2912-70.656c20.0704-13.312 38.912-28.2624 56.32-44.6464-20.48-12.9024-35.6352-32.768-42.3936-56.1152z" p-id="4052"></path></svg>