<?xml version="1.0" standalone="no"?><!DOCTYPE svg PUBLIC "-//W3C//DTD SVG 1.1//EN" "http://www.w3.org/Graphics/SVG/1.1/DTD/svg11.dtd"><svg t="1634721852392" class="icon" viewBox="0 0 1024 1024" version="1.1" xmlns="http://www.w3.org/2000/svg" p-id="25328" xmlns:xlink="http://www.w3.org/1999/xlink" width="200" height="200"><defs><style type="text/css"></style></defs><path d="M674.702222 227.555556a27.306667 27.306667 0 0 0 38.684445 0l119.921777-124.472889a27.306667 27.306667 0 0 0-39.367111-38.001778l-119.921777 124.700444a27.306667 27.306667 0 0 0 0.682666 37.774223zM769.820444 323.356444a27.306667 27.306667 0 0 0 38.684445 0l119.921778-124.928A27.306667 27.306667 0 1 0 889.059556 159.288889l-119.921778 125.610667a27.306667 27.306667 0 0 0 0.682666 38.456888zM483.100444 298.097778l-185.002666 185.002666a40.96 40.96 0 0 0 0 58.026667l184.775111 184.775111a40.96 40.96 0 0 0 58.026667 0l185.002666-185.002666a40.96 40.96 0 0 0 0-58.026667l-185.002666-184.775111a42.097778 42.097778 0 0 0-57.799112 0z m28.899556 379.562666l-165.660444-165.660444 165.660444-165.660444 165.660444 165.660444z" p-id="25329"></path><path d="M955.733333 311.068444a27.306667 27.306667 0 0 0-49.834666 22.755556A432.355556 432.355556 0 1 1 653.084444 102.627556a27.306667 27.306667 0 1 0 17.749334-51.655112A487.196444 487.196444 0 1 0 955.733333 311.068444z" p-id="25330"></path></svg>