<?xml version="1.0" standalone="no"?><!DOCTYPE svg PUBLIC "-//W3C//DTD SVG 1.1//EN" "http://www.w3.org/Graphics/SVG/1.1/DTD/svg11.dtd"><svg t="1705461263526" class="icon" viewBox="0 0 1116 1024" version="1.1" xmlns="http://www.w3.org/2000/svg" p-id="7523" xmlns:xlink="http://www.w3.org/1999/xlink" width="217.96875" height="200"><path d="M982.603048 0h-848.348242A134.413617 134.413617 0 0 0 0 134.274658v573.684704a134.403692 134.403692 0 0 0 134.254806 134.264732h397.225888V956.141173H309.909642a33.925989 33.925989 0 1 0 0 67.851978h507.083362a33.925989 33.925989 0 1 0 0-67.851978H595.441804V842.224094h387.171169a134.403692 134.403692 0 0 0 134.264732-134.264732V134.274658A134.413617 134.413617 0 0 0 982.603048 0z m80.368266 707.959362a80.447672 80.447672 0 0 1-80.368266 80.35834h-848.348242a80.447672 80.447672 0 0 1-80.35834-80.35834V134.274658a80.457597 80.457597 0 0 1 80.35834-80.378192h848.348242a80.457597 80.457597 0 0 1 80.368266 80.378192z m-169.927716-266.871875c-96.973936-152.954796-127.822963-201.054662-136.636971-214.474188-19.910923-30.293189-48.715259-39.921102-76.953831-25.816705a46.134581 46.134581 0 0 0-22.799297 33.519036 68.943803 68.943803 0 0 0-54.174385-5.250687 70.283771 70.283771 0 0 0-36.129491 34.541382c-16.953069-8.734602-43.44472-17.786826-66.561639-5.915708a68.953729 68.953729 0 0 0-28.784485 28.377532c-17.230988-23.494095-41.6978-56.953577-48.774813-66.978518a65.221672 65.221672 0 0 0-88.8448-15.484068c-31.633156 21.905985-39.404967 55.782346-19.80174 86.323677l156.964772 244.449754c-32.526468-5.756897-77.767737-13.677593-92.705892-15.831467a67.216734 67.216734 0 0 0-50.462179 12.25822 55.524278 55.524278 0 0 0-21.330296 38.690318c-4.218416 36.814363 31.424717 61.906493 63.216684 72.189502 24.21867 7.841291 260.608768 59.633512 272.797508 62.035527a97.5397 97.5397 0 0 0 18.223557 1.478927 191.565708 191.565708 0 0 0 44.268552-5.459126 550.031798 550.031798 0 0 0 119.683902-60.48712c30.719993-23.325358 81.390612-83.475005 87.802604-120.974241a97.291558 97.291558 0 0 0-14.640385-70.313548z m-11.990227 71.901657c-4.327598 25.350198-47.087447 79.385623-75.832228 101.222129a542.011845 542.011845 0 0 1-108.517507 55.097474 139.555122 139.555122 0 0 1-48.596151 3.553395c-20.95312-4.119159-248.30092-54.343122-269.154782-61.082662-15.384811-4.982694-43.871525-19.484118-41.677949-38.710169a24.536292 24.536292 0 0 1 9.310292-17.369947 36.069937 36.069937 0 0 1 26.769571-6.024891c23.20625 3.33503 126.046266 21.786877 127.078536 21.975466l5.340019 0.952865a13.359971 13.359971 0 0 0 13.598187-20.367504L340.034094 272.95632c-10.37234-16.178865-6.491398-31.206352 11.235875-43.494349a33.310597 33.310597 0 0 1 45.251195 7.742034c11.394686 16.159014 64.735313 88.755469 66.998369 91.832431l14.233432 19.315382 39.782143 58.760051a15.722284 15.722284 0 0 0 26.03507-17.637941l-48.80459-72.090245a15.682581 15.682581 0 0 0-1.766772-2.114171 45.062607 45.062607 0 0 1 21.141707-29.598391c15.384811-7.930622 42.263564 7.593149 50.442328 13.627965l3.126591 2.312684a15.761987 15.761987 0 0 0 1.439224 2.53105l50.055226 70.432656a15.722284 15.722284 0 0 0 25.638043-18.213631l-50.065152-70.432656a15.563473 15.563473 0 0 0-2.858597-2.987631 43.911228 43.911228 0 0 1 21.608215-24.417184c16.794258-6.352438 39.434744 8.873562 46.690419 15.216075l1.042197 0.923088a15.513845 15.513845 0 0 0 0.823832 1.578184l38.630763 58.293544a15.722284 15.722284 0 1 0 26.203807-17.369947l-38.610912-58.293545a15.672656 15.672656 0 0 0-2.253131-2.650157c-0.238216-10.699888 2.134022-24.645474 7.414487-27.275781 5.538532-2.739489 20.188842-10.094421 36.6357 14.938155 8.764379 13.320268 39.504224 61.271249 136.368978 214.057309l4.367301 6.868573a65.072787 65.072787 0 0 1 10.203603 48.189198zM320.023915 169.788756A92.805149 92.805149 0 0 1 438.715248 199.506255a13.479079 13.479079 0 0 0 17.290542 4.456633 13.439377 13.439377 0 0 0 5.15143-19.394788A119.604496 119.604496 0 0 0 250.176874 293.303972a13.469154 13.469154 0 0 0 25.181461-9.608062 92.785297 92.785297 0 0 1 44.66558-113.897228z" fill="#282222" p-id="7524"></path></svg>