<?xml version="1.0" standalone="no"?><!DOCTYPE svg PUBLIC "-//W3C//DTD SVG 1.1//EN" "http://www.w3.org/Graphics/SVG/1.1/DTD/svg11.dtd"><svg t="1681959724810" class="icon" viewBox="0 0 1024 1024" version="1.1" xmlns="http://www.w3.org/2000/svg" p-id="1997" xmlns:xlink="http://www.w3.org/1999/xlink" width="32" height="32"><path d="M86.613 535.893L251.733 651.52c12.79999999 9.387 30.29399999 6.827 40.107-5.547 3.84-4.69299999 5.547-10.666 5.547-17.066l0-233.814c0-22.613-25.6-36.693-45.654-22.613l-165.546 115.627c-14.08 14.08-14.08 36.693 0.426 47.786z m23.04 274.774L894.72 810.667c18.773 0 34.133 15.36 34.133 34.133s-15.36 34.133-34.133 34.13300001l-785.067-1e-8c-18.773 0-34.133-15.36-34.133-34.133s14.933-34.133 34.133-34.133z m0-665.6L894.72 145.06699999c18.773 0 34.133 15.36 34.133 34.13300001s-15.36 34.133-34.133 34.133l-785.067 0c-18.773 0-34.133-15.36-34.133-34.133s14.933-34.133 34.133-34.133zM399.787 588.8L894.72 588.8c18.773 0 34.133 15.36 34.133 34.133s-15.36 34.134-34.133 34.134l-494.933 0c-18.774 0-34.134-15.36-34.134-34.134S380.587 588.8 399.787 588.8z m-0.427-221.867L894.72 366.933c18.773 0 34.133 15.36 34.133 34.134s-15.36 34.133-34.133 34.133l-495.36 0c-18.773 0-34.133-15.36-34.133-34.133l0-0.427c0.42599999-18.347 15.36-33.707 34.133-33.707z" fill="#AAACAF" p-id="1998"></path></svg>