<?xml version="1.0" standalone="no"?><!DOCTYPE svg PUBLIC "-//W3C//DTD SVG 1.1//EN" "http://www.w3.org/Graphics/SVG/1.1/DTD/svg11.dtd"><svg class="icon" width="200px" height="200.00px" viewBox="0 0 1024 1024" version="1.1" xmlns="http://www.w3.org/2000/svg"><path d="M616 582.016l-480 0A8 8 0 0 0 128 590.01600001l0 55.99999999a8 8 0 0 0 8 8l480 0a8 8 0 0 0 8-8l0-56c0-4.41600001-3.58399999-8-8-8z m8-204.032c0-4.41600001-3.58399999-8-8-8l-480 0a8 8 0 0 0-8 8l0 55.99999999a8 8 0 0 0 8 8.00000001l480 0a8 8 0 0 0 8-8l0-56zM120 864L904 864a8 8 0 0 0 8-8L912 800c0-4.41600001-3.58399999-8-8-8l-784 0a8 8 0 0 0-8 8l0 56a8 8 0 0 0 8 8z m0-632L904 232a8 8 0 0 0 8-8l0-56c0-4.41600001-3.58399999-8-8-8l-784 0a8 8 0 0 0-8 8L112 224a8 8 0 0 0 8 8zM908.608 505.088l-156.288-123.072c-5.76-4.608-14.4-0.512-14.4 6.912L737.92 635.072a8.832 8.832 0 0 0 14.4 6.912L908.608 518.912a8.768 8.768 0 0 0 0-13.824z" fill="#666666" /></svg>