<svg xmlns="http://www.w3.org/2000/svg" width="20" height="20" viewBox="0 0 20 20"><defs><style>.a{fill:none;}</style></defs><g transform="translate(-747 -538)"><rect class="a" width="20" height="20" transform="translate(747 538)"/><path class="b" d="M121.351,70.946H109.895A2.455,2.455,0,0,0,107.44,73.4v7.364a2.455,2.455,0,0,0,2.455,2.455h11.456a2.455,2.455,0,0,0,2.455-2.455V73.4A2.455,2.455,0,0,0,121.351,70.946Zm-11.456,1.637h11.456a.818.818,0,0,1,.818.818v7.364a.818.818,0,0,1-.818.818H109.895a.818.818,0,0,1-.818-.818V73.4A.818.818,0,0,1,109.895,72.583Zm5.729-7.364a5.533,5.533,0,0,1,5.724,5.086l0,.185v1.273h-1.636V70.491a4.13,4.13,0,0,0-8.178-.164l0,.164v1.273H109.9V70.491a5.513,5.513,0,0,1,5.728-5.272Zm0,9a1.637,1.637,0,0,1,.819,3.054v1.856a.818.818,0,1,1-1.636,0V77.273a1.637,1.637,0,0,1,.818-3.054Z" transform="translate(641.56 473.781)"/></g></svg>