<?xml version="1.0" standalone="no"?><!DOCTYPE svg PUBLIC "-//W3C//DTD SVG 1.1//EN" "http://www.w3.org/Graphics/SVG/1.1/DTD/svg11.dtd"><svg class="icon" width="200px" height="200.00px" viewBox="0 0 1024 1024" version="1.1" xmlns="http://www.w3.org/2000/svg"><path d="M0 64.003161v896.002709c0 35.338559 28.653764 63.992324 64.001355 63.992324 35.349396 0 64.001355-28.651958 64.001354-63.992324V64.003161C128.000903 28.651958 99.350751 0 64.001355 0 28.653764 0 0 28.651958 0 64.003161zM895.995484 63.990517v640.006322c0 35.338559 28.650152 63.992324 64.001355 63.992324 35.336753 0 64.001355-28.651958 64.001355-63.992324V63.990517C1023.996388 28.651958 995.333592 0 959.995033 0c-35.349396 0-63.999548 28.651958-63.999549 63.990517zM296.955882 63.990517v640.006322c0 35.338559 28.653764 63.992324 64.004967 63.992324 35.345784 0 64.001355-28.651958 64.001355-63.992324V63.990517C424.960397 28.651958 396.306633 0 360.960849 0c-35.351203 0-64.004967 28.651958-64.004967 63.990517zM599.034184 64.003161v896.002709c0 35.338559 28.653764 63.992324 64.004967 63.992324 35.336753 0 64.001355-28.651958 64.001355-63.992324V64.003161C727.0387 28.651958 698.375904 0 663.039151 0c-35.349396 0-64.004967 28.651958-64.004967 64.003161z"  /></svg>