<?xml version="1.0" standalone="no"?><!DOCTYPE svg PUBLIC "-//W3C//DTD SVG 1.1//EN" "http://www.w3.org/Graphics/SVG/1.1/DTD/svg11.dtd"><svg t="1735019808718" class="icon" viewBox="0 0 1024 1024" version="1.1" xmlns="http://www.w3.org/2000/svg" p-id="17981" xmlns:xlink="http://www.w3.org/1999/xlink" width="200" height="200"><path d="M510.701825 508.937904m-314.82104 0a314.82104 314.82104 0 1 0 629.642079 0 314.82104 314.82104 0 1 0-629.642079 0Z" fill="#999999" p-id="17982"></path><path d="M511.955504 1023.989465A512.006911 512.006911 0 0 1 312.683679 40.388369a512.044837 512.044837 0 0 1 398.543651 943.356931 508.762094 508.762094 0 0 1-199.271826 40.244165z m0-950.109944a438.26106 438.26106 0 0 0-170.542549 841.94585 438.301093 438.301093 0 0 0 341.095633-807.517073A435.406042 435.406042 0 0 0 511.955504 73.890056z" fill="#999999" p-id="17983"></path></svg>