<?xml version="1.0" standalone="no"?><!DOCTYPE svg PUBLIC "-//W3C//DTD SVG 1.1//EN" "http://www.w3.org/Graphics/SVG/1.1/DTD/svg11.dtd"><svg t="1735011497130" class="icon" viewBox="0 0 1024 1024" version="1.1" xmlns="http://www.w3.org/2000/svg" p-id="17679" xmlns:xlink="http://www.w3.org/1999/xlink" width="200" height="200"><path d="M511.981765 1015.472356a502.976879 502.976879 0 1 1 502.976879-503.439221 502.976879 502.976879 0 0 1-502.976879 503.439221z" fill="#E5F4FC" p-id="17680"></path><path d="M511.981765 1024a511.966865 511.966865 0 1 1 511.966865-511.966865 511.966865 511.966865 0 0 1-511.966865 511.966865z m0-1005.953759a493.986893 493.986893 0 1 0 493.986893 493.986894A493.986893 493.986893 0 0 0 511.981765 18.046241z" fill="#7DB3FF" p-id="17681"></path><path d="M511.981765 953.467138a441.382632 441.382632 0 1 1 441.382632-441.382632 441.382632 441.382632 0 0 1-441.382632 441.382632z" fill="#7DB3FF" p-id="17682"></path><path d="M223.94261 512.084506A287.987783 287.987783 0 1 0 511.930394 224.096723a287.987783 287.987783 0 0 0-287.987784 287.987783z" fill="#247FFF" p-id="17683"></path></svg>