<svg xmlns="http://www.w3.org/2000/svg" width="20" height="20" viewBox="0 0 20 20"><defs><style>.a{fill:none;}</style></defs><g transform="translate(-747 -474)"><rect class="a" width="20" height="20" transform="translate(747 474)"/><path class="b" d="M110.61,64.24a4.5,4.5,0,1,1-4.5,4.5A4.5,4.5,0,0,1,110.61,64.24Zm0,1.5a3,3,0,1,0,3,3A3,3,0,0,0,110.61,65.74Zm2.122,8.25c3.442,0,6.029,2.278,6.125,5.61l0,.193v.37c0,1.683-2.639,2.036-5.782,2.074l-.635,0h-3.666c-3.48,0-6.3-.27-6.413-1.967l0-.109v-.37a5.734,5.734,0,0,1,5.931-5.8h.2l4.244-.005Zm0,1.5h-4.244c-2.683,0-4.542,1.68-4.625,4.13l0,.172v.37c0,.194,1.321.54,4.4.574l.516,0h3.666l.529,0c2.907-.038,4.306-.377,4.383-.559l.006-.013v-.37a4.238,4.238,0,0,0-4.443-4.3l-.185,0v0Z" transform="translate(646.64 410.76)"/></g></svg>