<svg t="1715840891458" class="icon" viewBox="0 0 1024 1024" version="1.1" xmlns="http://www.w3.org/2000/svg" p-id="10901" width="256" height="256"><path d="M488.323879 412.485818c0 13.622303 1.365333 27.244606 4.096 40.89794 2.699636 10.891636 5.864727 27.244606 9.557333 49.089939 4.530424 21.814303 7.695515 38.136242 9.526303 49.058909h9.557333c2.730667-13.622303 5.461333-28.175515 8.192-43.628606l4.096-20.44897c0.899879-8.16097 1.830788-14.491152 2.730667-19.083636 4.530424-24.54497 7.261091-42.232242 8.16097-53.154909-0.868848-19.083636-9.960727-29.075394-27.244606-30.006303-17.314909 1.861818-26.841212 10.922667-28.672 27.275636zM516.933818 577.411879c-17.283879 1.830788-26.779152 11.388121-28.609939 28.609939 1.830788 15.484121 11.326061 24.048485 28.609939 25.910303 17.283879-1.861818 26.779152-10.426182 28.64097-25.910303-1.861818-17.221818-11.357091-26.779152-28.64097-28.609939z" fill="#517AEE" p-id="10902"></path><path d="M938.790788 254.634667a31.030303 31.030303 0 0 0-53.030788 32.240485 430.483394 430.483394 0 0 1 62.805333 225.155878c0 239.522909-194.870303 434.393212-434.424242 434.393212s-434.424242-194.870303-434.424243-434.393212c0-239.553939 194.870303-434.455273 434.424243-434.455272a432.128 432.128 0 0 1 287.744 108.978424 31.030303 31.030303 0 1 0 41.146182-46.483394A494.157576 494.157576 0 0 0 514.141091 15.515152c-273.749333 0-496.484848 222.735515-496.484849 496.515878 0 273.749333 222.735515 496.453818 496.484849 496.453818s496.484848-222.704485 496.484848-496.453818a492.078545 492.078545 0 0 0-71.835151-257.396363z" fill="#517AEE" p-id="10903"></path><path d="M555.008 234.651152c-6.392242-8.781576-19.983515-23.489939-39.222303-23.48994-21.907394 0-35.467636 18.214788-40.711758 26.779152L232.727273 657.687273c-6.578424 12.474182-10.053818 33.357576 1.799757 51.106909 10.767515 16.166788 29.758061 20.914424 35.312485 22.000485a30.782061 30.782061 0 0 0 5.864727 0.558545h466.106182c1.179152 0 2.358303-0.062061 3.537455-0.186182 7.850667-0.899879 34.505697-5.368242 48.065939-24.669091 13.125818-18.742303 8.409212-42.697697-0.744727-59.485091L556.807758 237.443879a32.892121 32.892121 0 0 0-1.799758-2.792727zM297.673697 669.323636l218.484364-378.073212 217.770666 378.073212H297.673697z" fill="#517AEE" p-id="10904"></path></svg>