<?xml version="1.0" standalone="no"?><!DOCTYPE svg PUBLIC "-//W3C//DTD SVG 1.1//EN" "http://www.w3.org/Graphics/SVG/1.1/DTD/svg11.dtd"><svg class="icon" width="64px" height="56.01px" viewBox="0 0 1170 1024" version="1.1" xmlns="http://www.w3.org/2000/svg"><path d="M6.095238 0h1024v1024H6.095238z" fill="#D8D8D8" fill-opacity="0" /><path d="M390.095238 793.002667h256l140.501333-140.501334a42.666667 42.666667 0 0 1 60.330667 0L987.428571 793.002667v170.666666H48.761905v-170.666666l140.501333-140.501334a42.666667 42.666667 0 0 1 60.330667 0L390.095238 793.002667z" fill="#4A90E2" /><path d="M454.095238 543.957333V85.333333h128v458.922667l105.642667-105.642667a64 64 0 1 1 90.538666 90.496L582.095238 725.205333l-0.042667-0.042666V725.333333h-128v-0.384l-196.010666-195.968a64 64 0 0 1 90.538666-90.538666L454.095238 544z" fill="#4A90E2" /><path d="M910.628571 887.466667m-42.666666 0a42.666667 42.666667 0 1 0 85.333333 0 42.666667 42.666667 0 1 0-85.333333 0Z" fill="#E02020" /></svg>