<?xml version="1.0" standalone="no"?><!DOCTYPE svg PUBLIC "-//W3C//DTD SVG 1.1//EN" "http://www.w3.org/Graphics/SVG/1.1/DTD/svg11.dtd"><svg class="icon" width="200px" height="200.00px" viewBox="0 0 1024 1024" version="1.1" xmlns="http://www.w3.org/2000/svg"><path d="M621.2096 640.896h172.8768A127.5136 127.5136 0 0 1 921.6 768.4096v0.0256L921.5744 870.4a25.6 25.6 0 0 1-25.6 25.6H128a25.6 25.6 0 0 1-25.6-25.6v-101.9648a127.5648 127.5648 0 0 1 127.5648-127.5392h172.8v-83.1232c-65.28-37.4528-109.2096-107.4432-109.2096-187.5968 0-119.6032 97.792-216.576 218.4192-216.576 120.6528 0 218.4448 96.9728 218.4448 216.576 0 80.1536-43.9296 150.144-109.2096 187.5968v83.1232z m-253.3632 135.168a27.0592 27.0592 0 1 0 0 54.144H657.408a27.0592 27.0592 0 1 0 0-54.144H367.872z"  /></svg>