<?xml version="1.0" standalone="no"?><!DOCTYPE svg PUBLIC "-//W3C//DTD SVG 1.1//EN" "http://www.w3.org/Graphics/SVG/1.1/DTD/svg11.dtd"><svg class="icon" width="200px" height="200.00px" viewBox="0 0 1024 1024" version="1.1" xmlns="http://www.w3.org/2000/svg"><path d="M145 140.4h283c17.673 0 32 14.328 32 32v283c0 17.674-14.327 32-32 32H145c-17.673 0-32-14.326-32-32v-283c0-17.672 14.327-32 32-32zM711 548c104.934 0 190 85.066 190 190s-85.066 190-190 190-190-85.066-190-190 85.066-190 190-190z m-283 16.4c17.673 0 32 14.328 32 32v283c0 17.674-14.327 32-32 32H145c-17.673 0-32-14.326-32-32v-283c0-17.672 14.327-32 32-32h283z m256.098 195.383l-16.37-16.394c-24.78-24.815-64.921-25.05-89.99-0.528l83.733 84.805c12.371 12.372 32.353 12.495 44.877 0.37l0.377-0.37 93.65-94.33c24.434-24.612 24.308-64.365-0.28-88.821L684.098 759.783zM852 140.4c17.673 0 32 14.327 32 32v283c0 17.673-14.327 32-32 32H569c-17.673 0-32-14.327-32-32v-283c0-17.673 14.327-32 32-32h283z" /></svg>