<?xml version="1.0" standalone="no"?><!DOCTYPE svg PUBLIC "-//W3C//DTD SVG 1.1//EN" "http://www.w3.org/Graphics/SVG/1.1/DTD/svg11.dtd"><svg class="icon" width="200px" height="200.00px" viewBox="0 0 1024 1024" version="1.1" xmlns="http://www.w3.org/2000/svg"><path d="M509.6 1001.6c-28 0-52-9.6-71.2-29.6-19.2-19.2-29.6-42.4-29.6-68.8H608c0 28-9.6 51.2-28 70.4-18.4 18.4-42.4 28-70.4 28z m300-548v199.2c0 31.2 12.8 61.6 34.4 84l31.2 31.2c22.4 22.4 34.4 52.8 34.4 84h-800c0-31.2 12.8-61.6 34.4-84l31.2-31.2c22.4-22.4 34.4-52.8 34.4-84V453.6c0-78.4 20-145.6 60-204 40-57.6 94.4-95.2 164.8-112v-35.2c0-20 7.2-37.6 20.8-52.8 14.4-15.2 32-22.4 53.6-22.4s40 7.2 53.6 22.4c14.4 15.2 20.8 32 20.8 52.8v35.2c70.4 17.6 125.6 54.4 164.8 112 41.6 57.6 61.6 125.6 61.6 204z m94.4-67.2c-14.4-98.4-57.6-180-131.2-246.4-20.8-19.2-22.4-51.2-2.4-71.2 18.4-18.4 48.8-19.2 68.8-0.8 92 82.4 146.4 184 164 304 4 29.6-19.2 56.8-48.8 56.8H952c-24-0.8-44.8-18.4-48-42.4zM247.2 140.8C173.6 205.6 130.4 288 116 386.4c-3.2 24-24 41.6-48.8 41.6h-0.8c-30.4 0-53.6-27.2-49.6-56.8 17.6-120 72-220.8 164-303.2 20-17.6 49.6-17.6 68.8 0.8 20.8 19.2 19.2 52.8-2.4 72z" /></svg>