<svg t="1713426602154" class="icon" viewBox="0 0 1024 1024" version="1.1" xmlns="http://www.w3.org/2000/svg" p-id="2582" width="200" height="200"><path d="M366.157576 633.018182c17.066667-44.993939 29.478788-89.987879 63.612121-124.121212C209.454545 501.139394 35.684848 439.078788 35.684848 341.333333v107.054546c0 85.333333 147.393939 161.357576 330.472728 184.630303z" fill="#2E9CFE" p-id="2583"></path><path d="M380.121212 817.648485c-7.757576-27.927273-13.963636-55.854545-13.963636-85.333333 0-13.963636 3.10303-26.375758 4.654545-40.339394C195.490909 671.806061 37.236364 614.4 37.236364 530.618182v107.054545C34.133333 732.315152 162.909091 791.272727 380.121212 817.648485zM480.969697 448.387879c9.309091 0 18.618182-1.551515 27.927273-1.551515 65.163636-38.787879 145.842424-62.060606 231.175757-62.060606 20.169697 0 40.339394 3.10303 60.509091 4.654545 77.575758-34.133333 125.672727-80.678788 125.672727-131.878788v-63.612121C926.254545 88.436364 727.660606 4.654545 480.969697 4.654545 235.830303 4.654545 35.684848 89.987879 35.684848 193.939394v63.612121c0 105.50303 200.145455 190.836364 445.284849 190.836364z" fill="#2E9CFE" p-id="2584"></path><path d="M398.739394 878.157576C203.248485 862.642424 35.684848 809.890909 35.684848 721.454545v107.054546c0 105.50303 198.593939 189.284848 445.284849 189.284848 7.757576 0 17.066667-1.551515 24.824242-1.551515-55.854545-32.581818-77.575758-85.333333-107.054545-138.084848zM712.145455 423.563636c-155.151515 0-279.272727 133.430303-279.272728 297.890909s125.672727 297.890909 279.272728 297.89091c155.151515 0 279.272727-133.430303 279.272727-297.89091s-125.672727-297.890909-279.272727-297.890909z m94.642424 350.642425H505.793939v-89.987879H926.254545v89.987879h-119.466666z" fill="#2E9CFE" p-id="2585"></path></svg>