<?xml version="1.0" standalone="no"?><!DOCTYPE svg PUBLIC "-//W3C//DTD SVG 1.1//EN" "http://www.w3.org/Graphics/SVG/1.1/DTD/svg11.dtd"><svg class="icon" width="200px" height="200.00px" viewBox="0 0 1024 1024" version="1.1" xmlns="http://www.w3.org/2000/svg"><path d="M687.062026 992.968317C421.442267 1089.692264 127.721549 952.702217 31.031725 687.048335-65.692222 421.428576 71.297824 127.707858 336.951707 31.018034c265.636821-96.706885 559.357539 40.266099 656.030301 305.919982 96.706885 265.636821-40.266099 559.357539-305.919982 656.030301z m-4.077796-11.209673c259.443349-94.437652 393.225757-381.299484 298.788105-640.742833C887.334683 81.572463 600.472851-52.209945 341.029503 42.227706 81.586154 136.665358-52.196254 423.527191 42.241398 682.970539c94.437652 259.443349 381.299484 393.225757 640.742832 298.788105z m-11.943334-32.861232l-2.934648-8.019096c7.438991-2.712843 14.775611-5.596305 22.009859-8.650386l3.327072 7.848477c-7.370744 3.122329-14.843859 6.056977-22.419345 8.821005z m38.150423-15.816387l-3.617124-7.729044c7.166001-3.344134 14.246692-6.875948 21.190887-10.578382l4.009548 7.541363c-7.080691 3.753619-14.280816 7.353682-21.583311 10.749001z m36.70016-19.177583l-4.265476-7.370743c6.824763-3.975424 13.547154-8.104406 20.133049-12.421068l4.674963 7.166001c-6.722391 4.367848-13.581277 8.582139-20.542536 12.62581z m35.011032-22.47053l-4.947953-6.961258c6.466463-4.572591 12.779368-9.298739 18.97284-14.178444l5.289191 6.688267c-6.312905 4.982077-12.745244 9.793534-19.314078 14.451435z m33.014789-25.695231l-5.545119-6.483525c6.005791-5.118572 11.875087-10.407763 17.590825-15.833449l5.869296 6.193472c-5.81811 5.528058-11.806839 10.902558-17.915002 16.123502z m29.858336-27.879156l-6.074038-5.971667c5.528058-5.630429 10.902558-11.414415 16.123501-17.317835l6.398215 5.630429c-5.323315 6.039915-10.800187 11.926273-16.430616 17.659073z m27.776784-30.984422l-6.585896-5.408624c4.982077-6.091101 9.827658-12.335758 14.502621-18.682787l6.875948 5.050324c-4.777334 6.483524-9.691163 12.830554-14.792673 19.041087z m24.978631-33.47546l-7.046567-4.777334c4.436096-6.53471 8.701572-13.188854 12.779367-19.928306l7.285435 4.419033c-4.163105 6.875948-8.496829 13.649525-13.018235 20.303669z m21.941612-35.659384l-7.456054-4.146044c3.821867-6.89301 7.473115-13.905454 10.936682-20.986144l7.677858 3.753619c-3.531815 7.217186-7.25131 14.332001-11.158486 21.378569z m17.966187-35.932375l-7.797291-3.480629c3.241762-7.200124 6.26172-14.50262 9.111058-21.83924l7.950848 3.071143c-2.900524 7.507239-5.988729 14.912106-9.264615 22.248726z m15.270406-38.66228l-8.070282-2.781091c2.559286-7.456053 4.947953-14.980354 7.131877-22.572902l8.189715 2.354543c-2.218048 7.729044-4.640839 15.38984-7.25131 22.99945z m11.772716-39.907799l-8.275025-2.047429c1.893872-7.660796 3.583-15.355716 5.084448-23.101821l8.377396 1.603819c-1.535572 7.899663-3.241762 15.74814-5.186819 23.545431z m8.189715-40.829142l-8.428582-1.313767c1.194333-7.797291 2.200986-15.611644 2.985834-23.460121l8.496829 0.853095c-0.818972 8.002034-1.825624 15.969944-3.071143 23.920793z m4.487281-41.460433l-8.513891-0.545981c0.494795-7.865539 0.784848-15.74814 0.853095-23.647802l8.530953 0.08531c-0.068248 8.05322-0.3583 16.089378-0.870157 24.108473z m0.733662-41.784608l-8.530953 0.238866a452.754748 452.754748 0 0 0-1.279643-23.63074l8.513891-0.682476c0.648352 8.019096 1.0749 16.038192 1.296705 24.07435z m-3.071143-41.767547l-8.462706 1.006652a453.84671 453.84671 0 0 0-3.412381-23.425997l8.41152-1.450262c1.364953 7.933786 2.525162 15.901697 3.480629 23.869607z m-6.824763-41.392185l-8.360334 1.757376a457.395587 457.395587 0 0 0-5.510996-23.016512l8.240901-2.200985c2.081553 7.780229 3.958362 15.611644 5.630429 23.460121z m-10.066524-39.037642l-8.172654 2.491038c-2.286295-7.524301-4.777334-15.014478-7.473115-22.453468l8.019096-2.900525c2.729905 7.575486 5.289191 15.202159 7.609611 22.862955z m-13.24004-37.672689l-7.933786 3.173514c-2.934648-7.33662-6.039915-14.604992-9.332863-21.75393l7.746105-3.583001c3.361196 7.302496 6.53471 14.673239 9.520544 22.180479z m-17.01072-37.67269l-7.609611 3.838929c-3.583-7.046567-7.319558-13.990763-11.226734-20.815525l7.404867-4.231353c3.992486 6.961258 7.797291 14.024887 11.431478 21.207949z m-20.354855-36.137117l-7.234248 4.521405c-4.180167-6.705329-8.530953-13.274163-13.035297-19.740626l6.995382-4.879705c4.589653 6.568834 9.025748 13.274163 13.274163 20.098926z m-23.613678-34.294432l-6.790639 5.152696a452.822996 452.822996 0 0 0-14.775611-18.495107l6.53471-5.493934c5.169758 6.142286 10.185958 12.421068 15.03154 18.836345z m-26.22415-31.615713l-6.312906 5.732801c-5.306253-5.852234-10.749001-11.550911-16.37943-17.113092l6.022853-6.056977c5.698677 5.664553 11.260858 11.482663 16.669483 17.437268z m-29.312356-29.517098l-5.766924 6.278782c-5.801048-5.340377-11.772715-10.544258-17.846754-15.577521l5.45981-6.568834c6.17641 5.118572 12.233387 10.407763 18.153868 15.867573z m-31.905765-26.804255l-5.169757 6.773577a457.310277 457.310277 0 0 0-19.160521-13.922516l4.845581-7.029505c6.62002 4.555529 13.137668 9.281677 19.501759 14.161382z m-34.277369-23.920793l-4.555529 7.200125c-6.654143-4.214291-13.444782-8.257963-20.303669-12.131015l4.180167-7.438992c6.995382 3.9413 13.905454 8.070282 20.679031 12.369882z m-35.693509-20.474287l-3.924238 7.592548a459.272396 459.272396 0 0 0-21.293259-10.305391l3.514752-7.78023c7.33662 3.31001 14.553806 6.824763 21.702745 10.493073z m-37.024337-17.09603l-3.241762 7.899662a458.965282 458.965282 0 0 0-22.095169-8.41152l2.815215-8.053219a467.496235 467.496235 0 0 1 22.521716 8.565077z m-39.140013-14.041949l-2.525162 8.138529a457.839196 457.839196 0 0 0-22.777645-6.398215l2.098615-8.275025c7.797291 1.979181 15.526335 4.146043 23.204192 6.534711z m-40.249037-10.510135l-1.774438 8.326211a456.115944 456.115944 0 0 0-23.255379-4.333725l1.347891-8.428581c7.933786 1.262581 15.833449 2.746967 23.681926 4.436095z m-41.119194-6.89301l-1.023715 8.462706c-7.814353-0.938405-15.679892-1.706191-23.545431-2.23511l0.580105-8.513891c8.019096 0.545981 16.038192 1.313767 24.006103 2.286295z m-41.631052-3.173514l-0.255929 8.530953a452.993615 452.993615 0 0 0-23.647802-0.102372l-0.187681-8.530953c8.036158-0.170619 16.072316-0.136495 24.108474 0.102372z m-41.801671 0.614228l0.511858 8.530953c-7.882601 0.460671-15.74814 1.143148-23.596617 2.030367l-0.955467-8.479767c8.019096-0.904281 16.02113-1.586757 24.023164-2.081553z m-41.648113 4.401972l1.279643 8.445644c-7.797291 1.194333-15.560459 2.559286-23.306564 4.163105l-1.706191-8.360334c7.882601-1.620881 15.782263-3.037019 23.71605-4.248415z m-41.204504 8.189715l2.047429 8.275025c-7.643734 1.87681-15.253344 3.958362-22.828831 6.244657l-2.456915-8.172653c7.711982-2.320419 15.458087-4.436096 23.238317-6.347029z m-37.092585 10.766063l2.712843 8.087344a465.175816 465.175816 0 0 0-22.282849 8.104405l-3.122329-7.933786a474.576926 474.576926 0 0 1 22.692335-8.257963z m-38.594032 14.843859l3.412381 7.831415a458.965282 458.965282 0 0 0-21.463878 10.015339l-3.804805-7.643734c7.166001-3.583 14.468497-6.97832 21.83924-10.20302z m-37.160832 18.205054l4.094858 7.490177c-6.944196 3.787743-13.768958 7.746106-20.474288 11.875086l-4.487282-7.268372c6.841824-4.197229 13.803082-8.240901 20.866712-12.113953z m-35.522889 21.515064l4.74321 7.097753c-6.551772 4.38491-13.001173 8.940439-19.314078 13.649525l-5.10151-6.824763c6.432339-4.811458 12.984111-9.452296 19.672378-13.922515z m-33.611956 24.756826l5.374501 6.637081c-6.142286 4.947953-12.131015 10.066525-18.000311 15.355716l-5.698677-6.347029c5.971667-5.374501 12.07983-10.578382 18.324487-15.645768zM188.854359 177.57981l5.937544 6.142286c-5.681615 5.45981-11.209673 11.090239-16.584173 16.891288l-6.227596-5.835172c5.45981-5.869296 11.090239-11.602096 16.874225-17.198402z m-28.595755 30.267822l6.466463 5.579243c-5.169758 5.971667-10.168896 12.07983-15.014478 18.307426l-6.722391-5.220944c4.930891-6.364091 10.015339-12.574625 15.270406-18.665725z m-25.797602 32.75886l6.944196 4.947953c-4.606715 6.415277-9.04281 12.949987-13.308287 19.587069l-7.166001-4.606715c4.333724-6.773577 8.855129-13.410658 13.530092-19.945369z m-22.845893 35.045156l7.353682 4.333724c-4.009548 6.807701-7.848477 13.700711-11.499725 20.696093l-7.558425-3.941301c3.719496-7.131877 7.626672-14.161382 11.704468-21.088516z m-18.938716 35.574075l7.677858 3.685371c-3.412381 7.114815-6.62002 14.332001-9.657039 21.617436l-7.882601-3.292948c3.105267-7.421929 6.381153-14.758549 9.84472-22.009859z m-16.259997 38.21867l8.002034 2.985834c-2.764029 7.387805-5.340377 14.843859-7.711981 22.351097l-8.13853-2.559286c2.422791-7.660796 5.033262-15.253344 7.848477-22.777645z m-12.79643 39.583623l8.206777 2.269233a457.259091 457.259091 0 0 0-5.681614 22.965326l-8.326211-1.842685a465.790045 465.790045 0 0 1 5.801048-23.374812z m-9.247553 40.573213l8.394458 1.51851c-1.399076 7.763167-2.610472 15.560459-3.617124 23.374812l-8.462706-1.0749c1.023714-7.96791 2.252172-15.918759 3.685372-23.818422z m-5.579243 41.340999l8.496829 0.750724c-0.699538 7.848477-1.194333 15.731078-1.484386 23.630741l-8.530953-0.324177c0.290052-8.019096 0.80191-16.055254 1.51851-24.057288z m-1.825624 41.733423h8.530953c0 7.865539 0.221805 15.74814 0.648352 23.630741l-8.530953 0.460671c-0.426548-8.019096-0.648352-16.055254-0.648352-24.091412z m1.945057 41.801671l8.49683-0.784848c0.733662 7.848477 1.655005 15.679892 2.798152 23.494246l-8.445643 1.228457a461.865806 461.865806 0 0 1-2.849339-23.937855z m5.749863 41.52868l8.394458-1.535571c1.4332 7.729044 3.071143 15.441025 4.896767 23.135945l-8.292087 1.979181a464.595711 464.595711 0 0 1-4.999138-23.579555z m9.059872 39.344756l8.223839-2.269233c2.098614 7.592548 4.401972 15.133911 6.89301 22.64115l-8.104406 2.695781a470.004335 470.004335 0 0 1-6.995381-23.067698z m12.301634 38.116299l8.002035-2.968771c2.746967 7.421929 5.681615 14.758549 8.786881 22.009859l-7.848477 3.344134c-3.156453-7.370744-6.142286-14.843859-8.940439-22.385222z m16.038192 38.082175l7.711982-3.651248c3.378257 7.148939 6.944196 14.178444 10.663692 21.105579l-7.507239 4.060733a465.636487 465.636487 0 0 1-10.868435-21.498002z m19.382326 36.59779l7.33662-4.316663c4.009548 6.824763 8.189715 13.51303 12.540501 20.098926l-7.114815 4.692024c-4.436096-6.705329-8.701572-13.530092-12.762306-20.474287z m22.675274 34.891598l6.944196-4.965015c4.589653 6.415277 9.349925 12.71112 14.263753 18.870469l-6.654143 5.323315a461.285701 461.285701 0 0 1-14.553806-19.228769z m25.899974 32.878294l6.4494-5.562182c5.169758 5.971667 10.476011 11.806839 15.952883 17.505516l-6.159349 5.90342c-5.579243-5.801048-10.987868-11.755654-16.242934-17.846754z m28.032712 29.704779l5.937543-6.125225c5.664553 5.493934 11.465601 10.834311 17.403145 16.038192l-5.596306 6.415277c-6.056977-5.289191-11.977458-10.749001-17.744382-16.328244z m31.172103 27.606164l5.357438-6.620019c6.142286 4.947953 12.386944 9.75941 18.768097 14.400249l-4.999138 6.89301a465.329373 465.329373 0 0 1-19.126397-14.67324z m33.611955 24.79095l4.74321-7.080691c6.551772 4.38491 13.222977 8.616263 19.996555 12.659935l-4.38491 7.319558a466.882007 466.882007 0 0 1-20.371917-12.898802z m35.830004 21.753931l4.094857-7.507239c6.910072 3.804805 13.922516 7.421929 21.037331 10.834311l-3.702434 7.677858c-7.25131-3.480629-14.400249-7.166001-21.446816-11.00493z m35.966498 17.727321l3.446506-7.814353c7.217186 3.190576 14.519682 6.17641 21.907487 8.991624l-3.037019 7.967911c-7.507239-2.849338-14.94623-5.90342-22.316974-9.145182z m38.730528 15.031539l2.729905-8.070281c7.473115 2.525162 15.014478 4.862643 22.607026 6.995381l-2.303357 8.206777a466.779635 466.779635 0 0 1-23.033574-7.131877z m39.958985 11.567973l1.996243-8.292087c7.677858 1.842686 15.38984 3.497691 23.153007 4.947953l-1.569696 8.394458a465.175816 465.175816 0 0 1-23.579554-5.050324z m40.897389 7.950848l1.262581-8.445643c7.797291 1.16021 15.628706 2.115676 23.494246 2.8664l-0.818972 8.496829c-8.002034-0.767786-15.987006-1.740314-23.937855-2.917586z m41.511619 4.265477l0.477733-8.530953c7.865539 0.460671 15.765202 0.682476 23.647802 0.733662l-0.034124 8.530953a461.81462 461.81462 0 0 1-24.091411-0.750724z m41.80167 0.477733l-0.290052-8.530953c7.882601-0.255929 15.74814-0.733662 23.613678-1.399076l0.733662 8.496829c-8.019096 0.682476-16.038192 1.16021-24.057288 1.4332z m41.733423-3.292948l-1.057838-8.462705a454.017329 454.017329 0 0 0 23.391874-3.548877l1.501448 8.394458c-7.916725 1.416138-15.867573 2.610472-23.835484 3.617124z m41.358061-7.080691l-1.825624-8.343272c7.677858-1.672067 15.355716-3.565938 22.982388-5.630429l2.252172 8.223839c-7.780229 2.115676-15.577521 4.02661-23.408936 5.749862z m38.952333-10.288329l-2.525162-8.155592c7.063629-2.183924 14.093135-4.555529 21.071454-7.097753l2.917586 8.019096c-7.114815 2.576348-14.263754 4.999139-21.463878 7.234249z" fill="#FF3333" fill-opacity=".5" opacity=".8" /><path d="M780.902511 559.374089c-16.447678 92.816771-80.583384 174.594488-175.532893 209.144849-94.949509 34.567422-196.621409 13.137668-268.895644-47.380914l9.3158-3.39532c69.749073 56.236043 166.353587 75.635431 256.662258 42.757138 90.325732-32.861232 151.850967-109.827491 169.134678-197.730433l9.315801-3.39532z m-93.379813-256.525762l-9.298739 3.395319c-69.749073-56.236043-166.353587-75.635431-256.662258-42.757137-90.325732 32.861232-151.850967 109.827491-169.134678 197.730433l-9.315801 3.395319c16.447678-92.816771 80.583384-174.594488 175.532893-209.144848 94.949509-34.567422 196.621409-13.137668 268.895644 47.380914z" fill="#FF3333" fill-opacity=".5" opacity=".4" /><path d="M149.629037 624.192272l7.848477 20.457225 37.86037-14.536744-7.848477-20.440164-37.86037 14.519683z m31.035607-32.298189l-7.421929-19.314078-37.843308 14.536744 7.421929 19.297016 37.843308-14.519682z m-9.554667 151.049057l-14.22963-16.481801c4.811458-4.02661 6.347029-8.582139 4.521405-13.359473l-52.380053-136.478189 76.061979-29.192922 36.102994 94.045228-56.577282 21.719807 17.676135 46.067147a484.524018 484.524018 0 0 0 31.820456-26.258274 392.253228 392.253228 0 0 0-14.366125-11.141425l11.431477-15.355716c18.546292 13.478906 33.543708 25.712293 44.992247 36.683099l-11.294982 16.82304c-4.879705-4.709086-9.75941-9.418172-15.014478-13.973701-16.601235 15.594582-36.256551 31.240351-58.761205 46.90318z m133.628851-75.208883l-14.536745 5.579243-12.762306-17.249587 13.478906-4.299601c5.357439-2.047429 7.200124-5.835172 5.220944-10.987867l-38.150423-99.402667-26.957812 10.339515 58.112853 151.390296-19.877121 7.626672-65.295916-170.107207 66.712054-25.609921 47.090862 122.70923c5.579243 14.536744 1.109024 24.569145-13.035296 30.028956z m84.422312-101.706024l70.533922-27.077246-6.534711-17.01072 19.877121-7.626672 6.53471 17.01072 21.020269-8.070282 7.421929 19.297017-21.03733 8.070281 17.915002 46.647252c5.050324 13.188854 0.545981 22.589964-13.59834 28.015651l-25.42224 9.75941-11.72153-17.420206c8.309148-2.320419 16.191749-4.674962 23.443059-7.473115 5.357439-2.047429 7.268372-5.630429 5.510996-10.237144l-16.004068-41.665176-70.533921 27.077246-7.404868-19.297016z m-62.105339-80.105651l20.252483-7.780229L415.265857 655.14257l-20.252483 7.763167-22.009859-57.328005c-6.944196 14.50262-13.956639 27.060184-21.020269 37.22908l-16.208811-15.935821c8.445644-11.124363 17.744383-26.326522 27.913279-45.572352l-36.614851-95.376057z m98.737252 92.134295c14.195506 7.268372 25.712293 13.820144 34.328556 19.723564l-11.482663 16.908349c-8.991625-6.858886-20.337792-14.127258-33.850822-21.873364l11.004929-14.758549z m-19.911244-87.305775a120.252316 120.252316 0 0 1-22.129293 35.471703l-18.819283-10.766063c16.208811-17.18134 24.398526-35.249899 25.115127-53.949748l22.11223-4.094857c-0.170619 3.583-0.324176 7.148939-0.63129 10.322453l53.318457-20.474288 6.53471 17.027783c1.023714 31.189165-21.83924 61.900596-68.895978 92.458471l-16.754792-13.95664c12.35282-7.814353 22.828831-15.355716 31.632775-22.692335a149.871786 149.871786 0 0 0-18.017373-5.801048l9.84472-16.038192a225.217164 225.217164 0 0 1 22.521716 7.797291c9.622915-10.936682 15.628706-21.583312 17.932064-32.110508l-43.76379 16.805978z m-92.253728 25.319869a309.332363 309.332363 0 0 1 36.546603 34.652732l-14.792672 14.024887c-12.35282-13.905454-24.552083-25.678169-36.51248-35.113404l14.758549-13.564215z m185.53117-94.249971c16.635359 5.0162 31.274474 10.578382 44.070904 17.078968l-8.957501 20.098926c-11.124363-6.688267-25.661107-13.171792-43.67848-18.97284l8.565077-18.205054zM679.384168 550.211846c-10.885496 4.197229-22.811769 8.548015-35.693508 13.274163-13.06942 4.794396-24.227907 7.763167-33.168346 9.008686a45.452919 45.452919 0 0 1-25.899974-5.203881c-3.924238-2.218048-7.183063-2.729905-9.48642-1.842686-3.821867 1.467324-7.131877 12.830554-10.134772 34.157937l-19.928307-7.916725c3.548877-19.348202 8.530953-32.656489 14.553806-39.805428l-20.098925-52.380052-25.609922 9.84472-7.200124-18.733973 44.531575-17.096031 27.896217 72.632536c1.057838 0.477733 2.047429 0.750724 3.088205 1.228457 6.500586 3.207638 12.745244 5.18682 18.290364 5.920482 6.944196 0.392424 16.396492-1.262581 28.408074-5.425687 11.533849-4.214291 25.183374-9.213429 40.658523-15.185096 8.803944-3.361196 17.710259-6.995382 26.804255-10.714878 9.04281-3.907177 15.952882-6.995382 20.593721-9.213429l2.917586 21.907488-40.522028 15.543397z m-15.526335-23.852546l-26.753069 10.271268-11.738591-17.437268c8.701572-2.456915 17.147216-5.050324 24.79095-7.984972 4.982077-1.893872 6.62002-5.596305 4.709086-10.578382l-28.322765-73.775684-71.489388 27.435546-7.473115-19.484697 71.489388-27.452608-11.004929-28.664002 19.87712-7.626673 11.00493 28.664003 26.565388-10.20302 7.490177 19.501759-26.565388 10.20302 30.216636 78.740698c5.220943 13.581277 0.972529 23.101821-12.79643 28.391012z m-78.655388-68.930101c16.754792 9.349925 30.438441 18.136806 40.709709 26.036469l-11.80684 17.232525a369.936254 369.936254 0 0 0-40.709708-27.776783l11.806839-15.509273z m100.306948-107.814187l19.109335-7.33662 7.33662 19.109335 31.530403-12.113953-7.183063-18.716911 19.109335-7.33662 7.200125 18.733973 9.366986-3.600062 7.114815 18.546292-9.384048 3.583 28.698126 74.73115 10.322454-3.9413 7.114815 18.52923-91.929552 35.301085-7.114815-18.546292 11.840963-4.555529-28.681065-74.731151-9.75941 3.75362-7.114815-18.546292 9.75941-3.75362-7.336619-19.109335z m62.258896 105.050158l31.530403-12.113954-5.067386-13.171792-31.530403 12.113954 5.067386 13.171792z m2.849338-86.845104l-31.547464 12.113954 5.135633 13.376534 31.547465-12.113953-5.135634-13.376535z m-14.58793 56.270167l31.530403-12.113953-5.135633-13.376535-31.547465 12.113954 5.152695 13.376534z m53.506139 37.143771a286.469408 286.469408 0 0 1 27.469669 18.392735c3.736558-20.508411 1.194333-42.569456-7.711981-66.336692l-35.369332-92.134295 69.390773-26.633636 57.669243 150.247148c4.845581 12.608749 0.836033 21.600373-12.165139 26.58245l-19.877121 7.643734-12.830553-17.45433c7.097753-2.047429 13.547154-4.094858 19.279954-6.312905 3.821867-1.450262 4.709086-4.862643 2.729905-10.032401l-12.625811-32.878294-30.574936 11.755654c6.739453 26.138841 7.097753 49.906076 1.057838 71.301706l-18.802221-7.25131-8.377396 12.421068c-8.121467-7.404867-18.580416-15.236282-31.001484-23.63074l11.738592-15.696954z m-42.996004 17.147216l18.819283 1.552633a167.547921 167.547921 0 0 1-10.134773 44.463328l-20.457226-5.289191c5.801048-12.335758 9.793534-25.934098 11.772716-40.72677z m72.001245-100.443443l10.56132 27.520855 29.431788-11.294982-10.578382-27.520855-29.431788 11.294982z m22.453469-29.448851l-10.578382-27.537917-29.414727 11.312044 10.56132 27.520855 29.431789-11.294982z" fill="#FF3333" opacity=".8" /></svg>